<svg width="43" height="43" viewBox="0 0 43 43" fill="none" xmlns="http://www.w3.org/2000/svg">
<rect width="42.0655" height="42.0655" rx="12" fill="url(#paint0_linear_100_243)"/>
<g clip-path="url(#clip0_100_243)" filter="url(#filter0_i_100_243)">
<g filter="url(#filter1_i_100_243)">
<path d="M29.2002 32.9576C30.9242 32.2914 32.2872 30.9284 32.9533 29.2044C33.2686 28.3877 33.4894 27.4559 33.5493 26.093C33.5635 25.7737 33.5745 25.5057 33.5848 25.2369V16.1303C33.5777 15.9403 33.5698 15.7425 33.5595 15.5202C33.4996 14.1572 33.2789 13.2207 32.9636 12.4087C32.638 11.5471 32.1366 10.7753 31.4808 10.1344C30.8391 9.4825 30.0626 8.9764 29.2104 8.65635C28.3937 8.34103 27.462 8.1203 26.099 8.06039C24.7257 7.99496 24.2898 7.97998 20.8078 7.97998C17.3259 7.97998 16.8891 7.99496 15.5214 8.05487C14.1584 8.11478 13.2219 8.33551 12.41 8.65083C11.5484 8.9764 10.7766 9.47777 10.1349 10.1344C9.48377 10.7761 8.97768 11.5526 8.65684 12.404C8.34151 13.2207 8.12079 14.1524 8.06088 15.5154C7.99545 16.8887 7.98047 17.3246 7.98047 20.8073C7.98047 24.2901 7.99545 24.726 8.05536 26.0937C8.11527 27.4567 8.336 28.394 8.65211 29.2052C8.97768 30.0668 9.48377 30.8386 10.1349 31.4803C10.7766 32.1314 11.5531 32.6383 12.4052 32.9583C13.2219 33.2737 14.1537 33.4944 15.5167 33.5543C16.8844 33.615 17.3204 33.63 20.8031 33.63C24.2859 33.63 24.721 33.615 26.0895 33.5543C27.4525 33.4944 28.389 33.2737 29.201 32.9583L29.2002 32.9576ZM20.8126 31.3242C17.3897 31.3242 16.979 31.3092 15.631 31.2493C14.3784 31.1941 13.702 30.9836 13.2511 30.8086C12.6953 30.6029 12.1893 30.2773 11.7778 29.8516C11.3521 29.4354 11.0257 28.9348 10.8207 28.3783C10.6457 27.9274 10.4353 27.2455 10.3801 25.9984C10.3202 24.6456 10.3052 24.2396 10.3052 20.8168C10.3052 17.394 10.3202 16.9833 10.3801 15.636C10.4353 14.3834 10.6457 13.707 10.8207 13.2561C11.0265 12.6996 11.3521 12.1935 11.7833 11.7828C12.1987 11.3571 12.7001 11.0315 13.2558 10.8258C13.7067 10.6508 14.3886 10.4403 15.6357 10.3851C16.9885 10.3252 17.3945 10.3102 20.8165 10.3102C24.2386 10.3102 24.6501 10.3252 25.9981 10.3851C27.2507 10.4403 27.9271 10.6508 28.378 10.8258C28.9337 11.0315 29.4398 11.3571 29.8505 11.7828C30.2762 12.199 30.6026 12.6996 30.8075 13.2561C30.9825 13.707 31.193 14.3881 31.2482 15.636C31.3081 16.9888 31.3231 17.3948 31.3231 20.8168C31.3231 24.2389 31.3081 24.6401 31.2482 25.9928C31.193 27.2455 30.9825 27.9218 30.8075 28.3727C30.3763 29.4906 29.4895 30.3774 28.3725 30.8078C27.9215 30.9828 27.2404 31.1933 25.9925 31.2485C24.6398 31.3084 24.2338 31.3234 20.8118 31.3234L20.8126 31.3242Z" fill="white"/>
<path d="M20.8082 14.2168C17.1702 14.2168 14.2188 17.1682 14.2188 20.8063C14.2188 24.4443 17.1702 27.3957 20.8082 27.3957C24.4463 27.3957 27.3969 24.4443 27.3969 20.8063C27.3969 17.1682 24.4455 14.2168 20.8082 14.2168V14.2168ZM20.8082 25.0797C18.448 25.0797 16.534 23.1657 16.534 20.8055C16.534 18.4453 18.448 16.5313 20.8082 16.5313C23.1684 16.5313 25.0824 18.4453 25.0824 20.8055C25.0824 23.1657 23.1684 25.0797 20.8082 25.0797Z" fill="white"/>
<path d="M29.1959 13.9569C29.1959 13.1071 28.5069 12.4189 27.6571 12.4189C26.8073 12.4189 26.1191 13.1079 26.1191 13.9569C26.1191 14.8059 26.8081 15.4949 27.6571 15.4949C28.5061 15.4949 29.1959 14.8067 29.1959 13.9569Z" fill="white"/>
</g>
</g>
<defs>
<filter id="filter0_i_100_243" x="7.98047" y="7.97998" width="25.6504" height="26.1499" filterUnits="userSpaceOnUse" color-interpolation-filters="sRGB">
<feFlood flood-opacity="0" result="BackgroundImageFix"/>
<feBlend mode="normal" in="SourceGraphic" in2="BackgroundImageFix" result="shape"/>
<feColorMatrix in="SourceAlpha" type="matrix" values="0 0 0 0 0 0 0 0 0 0 0 0 0 0 0 0 0 0 127 0" result="hardAlpha"/>
<feOffset dy="0.5"/>
<feGaussianBlur stdDeviation="1.25"/>
<feComposite in2="hardAlpha" operator="arithmetic" k2="-1" k3="1"/>
<feColorMatrix type="matrix" values="0 0 0 0 0 0 0 0 0 0 0 0 0 0 0 0 0 0 0.2 0"/>
<feBlend mode="normal" in2="shape" result="effect1_innerShadow_100_243"/>
</filter>
<filter id="filter1_i_100_243" x="7.98047" y="7.97998" width="25.6045" height="26.1499" filterUnits="userSpaceOnUse" color-interpolation-filters="sRGB">
<feFlood flood-opacity="0" result="BackgroundImageFix"/>
<feBlend mode="normal" in="SourceGraphic" in2="BackgroundImageFix" result="shape"/>
<feColorMatrix in="SourceAlpha" type="matrix" values="0 0 0 0 0 0 0 0 0 0 0 0 0 0 0 0 0 0 127 0" result="hardAlpha"/>
<feOffset dy="0.5"/>
<feGaussianBlur stdDeviation="1.25"/>
<feComposite in2="hardAlpha" operator="arithmetic" k2="-1" k3="1"/>
<feColorMatrix type="matrix" values="0 0 0 0 0 0 0 0 0 0 0 0 0 0 0 0 0 0 0.1 0"/>
<feBlend mode="normal" in2="shape" result="effect1_innerShadow_100_243"/>
</filter>
<linearGradient id="paint0_linear_100_243" x1="21.0328" y1="-1.31071" x2="21.0328" y2="44.27" gradientUnits="userSpaceOnUse">
<stop stop-color="#FCA759"/>
<stop offset="0.19" stop-color="#E82D56"/>
<stop offset="0.74" stop-color="#A22DB4"/>
<stop offset="1" stop-color="#643DCE"/>
</linearGradient>
<clipPath id="clip0_100_243">
<rect width="25.65" height="25.65" fill="white" transform="translate(7.98047 7.97998)"/>
</clipPath>
</defs>
</svg>
