<svg width="43" height="43" viewBox="0 0 43 43" fill="none" xmlns="http://www.w3.org/2000/svg">
<rect width="42.0655" height="42.0655" rx="12" fill="url(#paint0_linear_100_254)"/>
<g clip-path="url(#clip0_100_254)" filter="url(#filter0_i_100_254)">
<path fill-rule="evenodd" clip-rule="evenodd" d="M21.0904 10.2598C27.3865 10.2598 32.4904 14.3504 32.4904 19.3965C32.4904 21.1591 31.8673 22.8048 30.7885 24.2005C30.7351 24.2799 30.6653 24.3677 30.5774 24.4647L30.5707 24.4719C30.2022 24.9132 29.7873 25.3275 29.331 25.7099C26.1785 28.6264 20.9895 32.0987 20.3046 31.563C19.7092 31.0973 21.2852 28.8197 19.467 28.4406C19.3402 28.4261 19.2136 28.4104 19.0882 28.3927L19.0858 28.3925V28.3923C13.7457 27.633 9.69043 23.8944 9.69043 19.3965C9.69027 14.3504 14.7943 10.2598 21.0904 10.2598V10.2598Z" fill="white"/>
<path fill-rule="evenodd" clip-rule="evenodd" d="M14.4764 22.3104H16.7756C17.1026 22.3104 17.3701 22.0426 17.3701 21.7153V21.6656C17.3701 21.3383 17.1026 21.0705 16.7756 21.0705H15.1205V17.3016C15.1205 16.9743 14.853 16.7065 14.526 16.7065H14.4764C14.1493 16.7065 13.8818 16.9743 13.8818 17.3016V21.7152C13.8818 22.0426 14.1493 22.3104 14.4764 22.3104V22.3104ZM28.7234 19.5439V19.4943C28.7234 19.1669 28.4559 18.8992 28.1288 18.8992H26.4738V17.957H28.1288C28.4559 17.957 28.7234 17.6892 28.7234 17.3619V17.3122C28.7234 16.9849 28.4559 16.7172 28.1288 16.7172H25.8296C25.5026 16.7172 25.2351 16.9849 25.2351 17.3122V21.7258C25.2351 22.0531 25.5026 22.3209 25.8296 22.3209H28.1288C28.4559 22.3209 28.7234 22.0531 28.7234 21.7258V21.6761C28.7234 21.3488 28.4559 21.0811 28.1288 21.0811H26.4738V20.1388H28.1288C28.4559 20.139 28.7234 19.8712 28.7234 19.5439V19.5439ZM24.3018 22.133L24.302 22.1327C24.412 22.0217 24.4738 21.8717 24.4739 21.7153V17.3018C24.4739 16.9744 24.2064 16.7067 23.8793 16.7067H23.8297C23.5026 16.7067 23.2351 16.9744 23.2351 17.3018V19.8926L21.0861 17.0076C20.9834 16.8282 20.7901 16.7067 20.5699 16.7067H20.5203C20.1932 16.7067 19.9256 16.9744 19.9256 17.3018V21.7153C19.9256 22.0427 20.1931 22.3105 20.5203 22.3105H20.5699C20.8969 22.3105 21.1644 22.0427 21.1644 21.7153V19.076L23.3289 22.035C23.3422 22.0558 23.3568 22.0757 23.3725 22.0946L23.3726 22.0948C23.432 22.176 23.5134 22.2316 23.604 22.2656C23.6737 22.2944 23.7499 22.3104 23.8296 22.3104H23.8792C23.9761 22.3105 24.0715 22.2866 24.157 22.2409C24.2164 22.2126 24.2665 22.176 24.3018 22.133V22.133ZM18.4446 22.3104H18.4941C18.8212 22.3104 19.0887 22.0426 19.0887 21.7153V17.3017C19.0887 16.9744 18.8212 16.7066 18.4941 16.7066H18.4446C18.1175 16.7066 17.8499 16.9744 17.8499 17.3017V21.7153C17.8499 22.0426 18.1175 22.3104 18.4446 22.3104Z" fill="#3ACE01"/>
</g>
<defs>
<filter id="filter0_i_100_254" x="9.69043" y="9.68994" width="22.7998" height="23.2998" filterUnits="userSpaceOnUse" color-interpolation-filters="sRGB">
<feFlood flood-opacity="0" result="BackgroundImageFix"/>
<feBlend mode="normal" in="SourceGraphic" in2="BackgroundImageFix" result="shape"/>
<feColorMatrix in="SourceAlpha" type="matrix" values="0 0 0 0 0 0 0 0 0 0 0 0 0 0 0 0 0 0 127 0" result="hardAlpha"/>
<feOffset dy="0.5"/>
<feGaussianBlur stdDeviation="1.25"/>
<feComposite in2="hardAlpha" operator="arithmetic" k2="-1" k3="1"/>
<feColorMatrix type="matrix" values="0 0 0 0 0 0 0 0 0 0 0 0 0 0 0 0 0 0 0.1 0"/>
<feBlend mode="normal" in2="shape" result="effect1_innerShadow_100_254"/>
</filter>
<linearGradient id="paint0_linear_100_254" x1="3.705" y1="3.135" x2="38.76" y2="41.04" gradientUnits="userSpaceOnUse">
<stop stop-color="#3ACE01"/>
<stop offset="1" stop-color="#36C400"/>
</linearGradient>
<clipPath id="clip0_100_254">
<rect width="22.8" height="22.8" fill="white" transform="translate(9.69043 9.68994)"/>
</clipPath>
</defs>
</svg>
