<svg width="43" height="43" viewBox="0 0 43 43" fill="none" xmlns="http://www.w3.org/2000/svg">
<rect width="42.0655" height="42.0655" rx="12" fill="url(#paint0_linear_100_276)"/>
<g clip-path="url(#clip0_100_276)" filter="url(#filter0_i_100_276)">
<path d="M19.6974 8.63368C15.6298 9.09893 11.5765 12.4708 11.4092 17.2873C11.3041 20.2282 12.119 22.4344 14.8507 23.054C16.0361 20.9114 14.4683 20.4388 14.2245 18.8888C13.2232 12.5369 21.3751 8.20516 25.641 12.6397C28.5925 15.7104 26.6496 25.1574 21.8889 24.1755C17.329 23.2376 24.1211 15.7177 20.4813 14.2412C17.5226 13.0413 15.95 17.9117 17.3529 20.331C16.5308 24.4913 14.7599 28.4117 15.4768 33.6298C17.8022 31.901 18.5861 28.5904 19.229 25.1378C20.3976 25.865 21.0214 26.6217 22.5127 26.7392C28.0118 27.1751 31.0828 21.1146 30.3324 15.5243C29.6656 10.5681 24.838 8.04599 19.6974 8.63368Z" fill="white"/>
</g>
<defs>
<filter id="filter0_i_100_276" x="7.98047" y="7.97998" width="25.6504" height="26.1499" filterUnits="userSpaceOnUse" color-interpolation-filters="sRGB">
<feFlood flood-opacity="0" result="BackgroundImageFix"/>
<feBlend mode="normal" in="SourceGraphic" in2="BackgroundImageFix" result="shape"/>
<feColorMatrix in="SourceAlpha" type="matrix" values="0 0 0 0 0 0 0 0 0 0 0 0 0 0 0 0 0 0 127 0" result="hardAlpha"/>
<feOffset dy="0.5"/>
<feGaussianBlur stdDeviation="1.25"/>
<feComposite in2="hardAlpha" operator="arithmetic" k2="-1" k3="1"/>
<feColorMatrix type="matrix" values="0 0 0 0 0 0 0 0 0 0 0 0 0 0 0 0 0 0 0.1 0"/>
<feBlend mode="normal" in2="shape" result="effect1_innerShadow_100_276"/>
</filter>
<linearGradient id="paint0_linear_100_276" x1="23.94" y1="43.32" x2="4.275" y2="-9.00811e-07" gradientUnits="userSpaceOnUse">
<stop stop-color="#CC0606"/>
<stop offset="1" stop-color="#FF0000"/>
</linearGradient>
<clipPath id="clip0_100_276">
<rect width="25.65" height="25.65" fill="white" transform="translate(7.98047 7.97998)"/>
</clipPath>
</defs>
</svg>
