<svg width="43" height="43" viewBox="0 0 43 43" fill="none" xmlns="http://www.w3.org/2000/svg">
<rect width="42.0655" height="42.0655" rx="12" fill="url(#paint0_linear_100_264)"/>
<g filter="url(#filter0_i_100_264)">
<path fill-rule="evenodd" clip-rule="evenodd" d="M25.7651 17.9285C27.2899 19.0135 29.1159 19.5931 30.9868 19.5861V15.8751C30.619 15.8761 30.2522 15.8367 29.893 15.7576V18.714C28.0179 18.7173 26.1892 18.131 24.6651 17.0379V24.6702C24.6605 25.9226 24.3174 27.1504 23.6721 28.2234C23.0268 29.2964 22.1034 30.1746 20.9998 30.765C19.8962 31.3553 18.6536 31.6357 17.4037 31.5764C16.1539 31.5172 14.9433 31.1205 13.9004 30.4284C14.865 31.4053 16.0976 32.0737 17.4421 32.349C18.7865 32.6243 20.1823 32.4941 21.4528 31.9749C22.7232 31.4556 23.8111 30.5707 24.5788 29.4323C25.3465 28.2938 25.7593 26.9529 25.7651 25.5794V17.9285ZM27.1184 14.1433C26.343 13.3021 25.8672 12.2279 25.7651 11.0879V10.6055H24.7269C24.8552 11.3301 25.1345 12.0196 25.5465 12.6291C25.9585 13.2386 26.4941 13.7545 27.1184 14.1433V14.1433ZM16.3042 27.4906C15.9444 27.0196 15.7239 26.457 15.6678 25.8668C15.6117 25.2766 15.7223 24.6825 15.9869 24.1521C16.2516 23.6217 16.6597 23.1763 17.1648 22.8666C17.6699 22.5569 18.2517 22.3953 18.844 22.4003C19.171 22.4002 19.4961 22.4503 19.808 22.5487V18.714C19.4434 18.6657 19.0757 18.645 18.7081 18.6522V21.6333C17.9487 21.3931 17.1267 21.4477 16.4058 21.7864C15.6848 22.125 15.1176 22.7229 14.817 23.4611C14.5164 24.1993 14.5044 25.0236 14.7834 25.7702C15.0624 26.5169 15.6119 27.131 16.3228 27.4906H16.3042Z" fill="#EE1D52"/>
<path fill-rule="evenodd" clip-rule="evenodd" d="M24.6653 17.0131C26.1894 18.1063 28.0181 18.6926 29.8932 18.6893V15.7328C28.8249 15.5068 27.8544 14.9508 27.1186 14.1433C26.4943 13.7545 25.9587 13.2386 25.5467 12.6291C25.1347 12.0196 24.8554 11.3301 24.7271 10.6055H21.9958V25.5794C21.9932 26.2422 21.7834 26.8875 21.3956 27.4249C21.0079 27.9622 20.4618 28.3645 19.834 28.5753C19.2062 28.7861 18.5282 28.7949 17.8952 28.6003C17.2621 28.4058 16.7058 28.0177 16.3044 27.4905C15.6683 27.1693 15.1588 26.6429 14.8582 25.9962C14.5576 25.3496 14.4835 24.6205 14.6477 23.9265C14.812 23.2325 15.205 22.6141 15.7635 22.1711C16.3219 21.7282 17.0132 21.4864 17.7257 21.4849C18.0526 21.4859 18.3776 21.536 18.6897 21.6333V18.6522C17.3411 18.6846 16.0313 19.1104 14.921 19.8774C13.8108 20.6443 12.9484 21.7191 12.4399 22.9697C11.9313 24.2202 11.7986 25.5922 12.0581 26.9172C12.3176 28.2422 12.9579 29.4626 13.9006 30.4284C14.9437 31.1255 16.1562 31.5263 17.4089 31.5881C18.6616 31.6499 19.9076 31.3705 21.0141 30.7796C22.1207 30.1887 23.0464 29.3084 23.6927 28.2326C24.3389 27.1567 24.6815 25.9255 24.6838 24.6702L24.6653 17.0131Z" fill="white"/>
<path fill-rule="evenodd" clip-rule="evenodd" d="M29.8933 15.7327V14.9348C28.9122 14.939 27.9501 14.6645 27.1187 14.1431C27.8526 14.953 28.8239 15.5094 29.8933 15.7327V15.7327ZM24.7272 10.6053C24.7272 10.4631 24.6839 10.3146 24.6654 10.1724V9.68994H20.8959V24.67C20.8926 25.5088 20.557 26.3121 19.9627 26.9034C19.3683 27.4948 18.5638 27.826 17.7258 27.8244C17.2323 27.8269 16.7453 27.7124 16.3045 27.4904C16.7059 28.0175 17.2622 28.4056 17.8952 28.6002C18.5283 28.7947 19.2063 28.786 19.8341 28.5752C20.4619 28.3644 21.008 27.962 21.3957 27.4247C21.7834 26.8874 21.9933 26.242 21.9958 25.5792V10.6053H24.7272ZM18.6898 18.6458V17.7985C17.1387 17.5876 15.5619 17.9087 14.2165 18.7096C12.871 19.5104 11.8363 20.7438 11.2808 22.2086C10.7254 23.6734 10.682 25.2833 11.1578 26.776C11.6335 28.2686 12.6003 29.556 13.9007 30.4283C12.9652 29.4602 12.3316 28.2403 12.0774 26.9177C11.8232 25.5952 11.9594 24.2271 12.4693 22.9807C12.9792 21.7343 13.8408 20.6636 14.9488 19.8992C16.0567 19.1349 17.3631 18.7101 18.7083 18.6768L18.6898 18.6458Z" fill="#69C9D0"/>
</g>
<defs>
<filter id="filter0_i_100_264" x="7.98047" y="7.97998" width="25.6504" height="26.1499" filterUnits="userSpaceOnUse" color-interpolation-filters="sRGB">
<feFlood flood-opacity="0" result="BackgroundImageFix"/>
<feBlend mode="normal" in="SourceGraphic" in2="BackgroundImageFix" result="shape"/>
<feColorMatrix in="SourceAlpha" type="matrix" values="0 0 0 0 0 0 0 0 0 0 0 0 0 0 0 0 0 0 127 0" result="hardAlpha"/>
<feOffset dy="0.5"/>
<feGaussianBlur stdDeviation="1.25"/>
<feComposite in2="hardAlpha" operator="arithmetic" k2="-1" k3="1"/>
<feColorMatrix type="matrix" values="0 0 0 0 0 0 0 0 0 0 0 0 0 0 0 0 0 0 0.1 0"/>
<feBlend mode="normal" in2="shape" result="effect1_innerShadow_100_264"/>
</filter>
<linearGradient id="paint0_linear_100_264" x1="0.855" y1="2.93972e-07" x2="37.05" y2="45.315" gradientUnits="userSpaceOnUse">
<stop/>
<stop offset="1" stop-color="#323232"/>
</linearGradient>
</defs>
</svg>
