<svg width="43" height="43" viewBox="0 0 43 43" fill="none" xmlns="http://www.w3.org/2000/svg">
<rect width="42.0655" height="42.0655" rx="12" fill="url(#paint0_linear_100_250)"/>
<g clip-path="url(#clip0_100_250)" filter="url(#filter0_i_100_250)">
<path d="M33.5164 12.802C32.6867 13.1594 31.8144 13.4083 30.9211 13.5425C31.3387 13.4708 31.9532 12.7184 32.1979 12.4139C32.5695 11.9545 32.8527 11.4301 33.0331 10.8672C33.0331 10.8254 33.0749 10.7657 33.0331 10.7359C33.0121 10.7244 32.9885 10.7183 32.9645 10.7183C32.9405 10.7183 32.917 10.7244 32.8959 10.7359C31.9259 11.2616 30.8936 11.6629 29.8233 11.9302C29.786 11.9416 29.7463 11.9426 29.7085 11.9331C29.6706 11.9237 29.6361 11.9041 29.6085 11.8764C29.5252 11.7771 29.4356 11.6834 29.3401 11.5958C28.9035 11.2043 28.4083 10.8839 27.8724 10.6463C27.149 10.3493 26.3677 10.2206 25.5873 10.2701C24.8302 10.318 24.091 10.5212 23.4157 10.8672C22.7506 11.2321 22.1662 11.7277 21.6974 12.3243C21.2043 12.9384 20.8483 13.651 20.6533 14.4143C20.4926 15.1403 20.4743 15.8907 20.5996 16.6237C20.5996 16.7491 20.5996 16.7671 20.4922 16.7492C16.2384 16.1221 12.7481 14.6114 9.89631 11.3688C9.77102 11.2255 9.70539 11.2255 9.60397 11.3688C8.363 13.2558 8.96559 16.2416 10.5168 17.7165C10.7256 17.9136 10.9404 18.1047 11.1671 18.2838C10.4559 18.2333 9.76204 18.0404 9.12667 17.7165C9.00735 17.6389 8.94172 17.6807 8.93576 17.824C8.91884 18.0227 8.91884 18.2225 8.93576 18.4212C9.06024 19.3734 9.43517 20.2754 10.0222 21.035C10.6092 21.7946 11.3873 22.3846 12.2768 22.7445C12.4937 22.8375 12.7196 22.9075 12.951 22.9535C12.2926 23.0833 11.6173 23.1034 10.9523 23.0132C10.8091 22.9834 10.7554 23.061 10.8091 23.1983C11.6862 25.5869 13.5894 26.3155 14.9855 26.7215C15.1764 26.7514 15.3673 26.7514 15.5821 26.7991C15.5821 26.7991 15.5821 26.7991 15.5463 26.835C15.1346 27.5874 13.47 28.095 12.7064 28.3577C11.3125 28.8588 9.82633 29.0504 8.35107 28.919C8.11839 28.8832 8.0647 28.8892 8.00503 28.919C7.94537 28.9489 8.00503 29.0146 8.07066 29.0743C8.36897 29.2713 8.66728 29.4445 8.97752 29.6117C9.90111 30.1159 10.8775 30.5164 11.889 30.806C17.1273 32.2511 23.0219 31.1882 26.9536 27.2769C30.0441 24.2075 31.1299 19.9737 31.1299 15.734C31.1299 15.5728 31.3268 15.4772 31.4402 15.3936C32.222 14.7839 32.9114 14.0638 33.4866 13.2558C33.5862 13.1354 33.6372 12.9821 33.6297 12.8259C33.6297 12.7363 33.6297 12.7542 33.5164 12.802Z" fill="white"/>
</g>
<defs>
<filter id="filter0_i_100_250" x="7.98047" y="7.97998" width="25.6504" height="26.1499" filterUnits="userSpaceOnUse" color-interpolation-filters="sRGB">
<feFlood flood-opacity="0" result="BackgroundImageFix"/>
<feBlend mode="normal" in="SourceGraphic" in2="BackgroundImageFix" result="shape"/>
<feColorMatrix in="SourceAlpha" type="matrix" values="0 0 0 0 0 0 0 0 0 0 0 0 0 0 0 0 0 0 127 0" result="hardAlpha"/>
<feOffset dy="0.5"/>
<feGaussianBlur stdDeviation="1.25"/>
<feComposite in2="hardAlpha" operator="arithmetic" k2="-1" k3="1"/>
<feColorMatrix type="matrix" values="0 0 0 0 0 0 0 0 0 0 0 0 0 0 0 0 0 0 0.1 0"/>
<feBlend mode="normal" in2="shape" result="effect1_innerShadow_100_250"/>
</filter>
<linearGradient id="paint0_linear_100_250" x1="0.855" y1="2.93972e-07" x2="37.05" y2="45.315" gradientUnits="userSpaceOnUse">
<stop stop-color="#0CA8F7"/>
<stop offset="1" stop-color="#0096E1"/>
</linearGradient>
<clipPath id="clip0_100_250">
<rect width="25.65" height="25.65" fill="white" transform="translate(7.98047 7.97998)"/>
</clipPath>
</defs>
</svg>
