<svg width="70" height="70" viewBox="0 0 70 70" fill="none" xmlns="http://www.w3.org/2000/svg">
<path d="M35 3.32812C17.5356 3.32812 3.32812 17.5356 3.32812 35C3.32812 52.4644 17.5356 66.6719 35 66.6719C52.4644 66.6719 66.6719 52.4644 66.6719 35C66.6719 17.5356 52.4644 3.32812 35 3.32812ZM62.303 37.1406C61.2626 50.5391 50.5391 61.2626 37.1406 62.303V59.0625C37.1406 57.881 36.1831 56.9219 35 56.9219C33.8169 56.9219 32.8594 57.881 32.8594 59.0625V62.303C19.4609 61.2626 8.73739 50.5391 7.69698 37.1406H10.9375C12.1204 37.1406 13.0781 36.1829 13.0781 35C13.0781 33.8171 12.1204 32.8594 10.9375 32.8594H7.69698C8.73739 19.4609 19.4609 8.73739 32.8594 7.69698V10.9375C32.8594 12.1204 33.8171 13.0781 35 13.0781C36.1829 13.0781 37.1406 12.1204 37.1406 10.9375V7.69698C50.5391 8.73739 61.2626 19.4609 62.303 32.8594H59.0625C57.881 32.8594 56.9219 33.8169 56.9219 35C56.9219 36.1831 57.881 37.1406 59.0625 37.1406H62.303Z" fill="url(#paint0_linear_9_1394)" stroke="url(#paint1_linear_9_1394)"/>
<path d="M19.1192 48.0581L19.1192 48.0581C18.7638 48.8658 18.9406 49.8105 19.566 50.4345C19.9759 50.8442 20.5239 51.0607 21.0797 51.0607C21.3718 51.0607 21.664 51.0005 21.9401 50.8801L21.9416 50.8795L41.278 42.3734L41.2781 42.3733C41.7684 42.1575 42.1587 41.7651 42.3749 41.2772L42.3755 41.2759L50.8815 21.9395C51.237 21.1316 51.0598 20.1883 50.4351 19.5635L50.4347 19.5631C49.8095 18.9394 48.864 18.7641 48.0577 19.1194L28.7242 27.6263C28.2331 27.8418 27.8417 28.2332 27.6262 28.7243L19.1192 48.0581ZM44.7465 25.2544L38.7909 38.791L25.2554 44.7455L31.2109 31.2099L44.7465 25.2544Z" fill="url(#paint2_linear_9_1394)" stroke="url(#paint3_linear_9_1394)"/>
<path d="M33.5231 36.55L33.5231 36.55L33.4512 36.4781L33.5231 36.55ZM33.5231 36.55C33.9311 36.9581 34.4553 37.1591 34.9835 37.1591C35.5405 37.1591 36.0911 36.9354 36.5133 36.5145L36.5136 36.5142M33.5231 36.55L36.5136 36.5142M36.5136 36.5142C37.3641 35.6652 37.2999 34.2718 36.4777 33.4507M36.5136 36.5142L36.4777 33.4507M36.4777 33.4507C35.6415 32.6147 34.2872 32.6147 33.451 33.4507L36.4777 33.4507Z" fill="url(#paint4_linear_9_1394)" stroke="url(#paint5_linear_9_1394)"/>
<defs>
<linearGradient id="paint0_linear_9_1394" x1="3.82812" y1="35" x2="66.1719" y2="35" gradientUnits="userSpaceOnUse">
<stop stop-color="#EBA01F"/>
<stop offset="1" stop-color="#FAD422"/>
</linearGradient>
<linearGradient id="paint1_linear_9_1394" x1="3.82812" y1="35" x2="66.1719" y2="35" gradientUnits="userSpaceOnUse">
<stop stop-color="#EBA01F"/>
<stop offset="1" stop-color="#FAD422"/>
</linearGradient>
<linearGradient id="paint2_linear_9_1394" x1="19.438" y1="34.9992" x2="50.5627" y2="34.9992" gradientUnits="userSpaceOnUse">
<stop stop-color="#EBA01F"/>
<stop offset="1" stop-color="#FAD422"/>
</linearGradient>
<linearGradient id="paint3_linear_9_1394" x1="19.438" y1="34.9992" x2="50.5627" y2="34.9992" gradientUnits="userSpaceOnUse">
<stop stop-color="#EBA01F"/>
<stop offset="1" stop-color="#FAD422"/>
</linearGradient>
<linearGradient id="paint4_linear_9_1394" x1="33.3237" y1="34.9914" x2="36.6234" y2="34.9914" gradientUnits="userSpaceOnUse">
<stop stop-color="#EBA01F"/>
<stop offset="1" stop-color="#FAD422"/>
</linearGradient>
<linearGradient id="paint5_linear_9_1394" x1="33.3237" y1="34.9914" x2="36.6234" y2="34.9914" gradientUnits="userSpaceOnUse">
<stop stop-color="#EBA01F"/>
<stop offset="1" stop-color="#FAD422"/>
</linearGradient>
</defs>
</svg>
