<svg width="70" height="70" viewBox="0 0 70 70" fill="none" xmlns="http://www.w3.org/2000/svg">
<path d="M55.4167 55.4167H14.5833V23.3334H55.4167M46.6667 2.91675V8.75008H23.3333V2.91675H17.5V8.75008H14.5833C11.3458 8.75008 8.75 11.3459 8.75 14.5834V55.4167C8.75 56.9638 9.36458 58.4476 10.4585 59.5415C11.5525 60.6355 13.0362 61.2501 14.5833 61.2501H55.4167C56.9638 61.2501 58.4475 60.6355 59.5415 59.5415C60.6354 58.4476 61.25 56.9638 61.25 55.4167V14.5834C61.25 11.3459 58.625 8.75008 55.4167 8.75008H52.5V2.91675M49.5833 35.0001H35V49.5834H49.5833V35.0001Z" fill="url(#paint0_linear_260_2372)"/>
<defs>
<linearGradient id="paint0_linear_260_2372" x1="8.75" y1="32.0834" x2="61.25" y2="32.0834" gradientUnits="userSpaceOnUse">
<stop stop-color="#27A5DB"/>
<stop offset="1" stop-color="#11DBF2"/>
</linearGradient>
</defs>
</svg>
