<svg width="30" height="30" viewBox="0 0 30 30" fill="none" xmlns="http://www.w3.org/2000/svg">
<path fill-rule="evenodd" clip-rule="evenodd" d="M8.05282 2.5H21.9528C25.1192 2.60868 27.6011 5.25825 27.5028 8.425V16.575C27.5499 18.1044 26.9854 19.5895 25.9344 20.7015C24.8834 21.8136 23.4324 22.4608 21.9028 22.5H10.0028C9.17931 22.517 8.39835 22.8691 7.84032 23.475L4.87782 26.6375C4.62683 26.9112 4.27416 27.0695 3.90282 27.075C3.5193 27.0652 3.15559 26.9026 2.89265 26.6232C2.62971 26.3438 2.48935 25.9709 2.50282 25.5875V8.425C2.40453 5.25825 4.88641 2.60868 8.05282 2.5ZM21.9528 20.625C24.084 20.5172 25.7269 18.7066 25.6278 16.575V8.425C25.7269 6.2934 24.084 4.48283 21.9528 4.375H8.05282C5.92164 4.48283 4.27872 6.2934 4.37782 8.425V24.425L6.41532 22.2C7.3471 21.2088 8.64252 20.6401 10.0028 20.625H21.9528Z" fill="url(#paint0_linear_41_1603)"/>
<path d="M10.3153 10.9375H16.5653C17.0831 10.9375 17.5028 10.5178 17.5028 10C17.5028 9.48223 17.0831 9.0625 16.5653 9.0625H10.3153C9.79755 9.0625 9.37782 9.48223 9.37782 10C9.37782 10.5178 9.79755 10.9375 10.3153 10.9375Z" fill="url(#paint1_linear_41_1603)"/>
<path d="M19.6903 14.0625H10.3153C9.79755 14.0625 9.37782 14.4822 9.37782 15C9.37782 15.5178 9.79755 15.9375 10.3153 15.9375H19.6903C20.2081 15.9375 20.6278 15.5178 20.6278 15C20.6278 14.4822 20.2081 14.0625 19.6903 14.0625Z" fill="url(#paint2_linear_41_1603)"/>
<defs>
<linearGradient id="paint0_linear_41_1603" x1="2.5" y1="14.7875" x2="27.5056" y2="14.7875" gradientUnits="userSpaceOnUse">
<stop stop-color="#EBA01F"/>
<stop offset="1" stop-color="#FAD422"/>
</linearGradient>
<linearGradient id="paint1_linear_41_1603" x1="2.5" y1="14.7875" x2="27.5056" y2="14.7875" gradientUnits="userSpaceOnUse">
<stop stop-color="#EBA01F"/>
<stop offset="1" stop-color="#FAD422"/>
</linearGradient>
<linearGradient id="paint2_linear_41_1603" x1="2.5" y1="14.7875" x2="27.5056" y2="14.7875" gradientUnits="userSpaceOnUse">
<stop stop-color="#EBA01F"/>
<stop offset="1" stop-color="#FAD422"/>
</linearGradient>
</defs>
</svg>
