<svg width="20" height="20" viewBox="0 0 20 20" fill="none" xmlns="http://www.w3.org/2000/svg">
<path d="M9.97695 2.84497C6.04736 2.84497 2.84521 6.04712 2.84521 9.97671C2.84521 13.9063 6.04736 17.1084 9.97695 17.1084C10.4498 17.1084 10.9033 16.9206 11.2377 16.5862C11.572 16.2519 11.7599 15.7984 11.7599 15.3255C11.7599 14.8905 11.5959 14.4697 11.3035 14.1345C11.2464 14.069 11.2137 13.9859 11.2107 13.8992C11.2107 13.6995 11.3676 13.5426 11.5673 13.5426H12.8296C15.1902 13.5426 17.1087 11.6241 17.1087 9.26353C17.1087 5.72619 13.9065 2.84497 9.97695 2.84497ZM13.8994 10.6899C13.3075 10.6899 12.8296 10.2121 12.8296 9.62012C12.8296 9.02818 13.3075 8.55036 13.8994 8.55036C14.4913 8.55036 14.9692 9.02818 14.9692 9.62012C14.9692 10.2121 14.4913 10.6899 13.8994 10.6899ZM11.7599 7.83719C11.1679 7.83719 10.6901 7.35936 10.6901 6.76743C10.6901 6.17549 11.1679 5.69766 11.7599 5.69766C12.3518 5.69766 12.8296 6.17549 12.8296 6.76743C12.8296 7.35936 12.3518 7.83719 11.7599 7.83719ZM4.98474 9.62012C4.98474 9.02818 5.46256 8.55036 6.0545 8.55036C6.64643 8.55036 7.12426 9.02818 7.12426 9.62012C7.12426 10.2121 6.64643 10.6899 6.0545 10.6899C5.46256 10.6899 4.98474 10.2121 4.98474 9.62012ZM9.26378 6.76743C9.26378 7.35936 8.78595 7.83719 8.19402 7.83719C7.60208 7.83719 7.12426 7.35936 7.12426 6.76743C7.12426 6.17549 7.60208 5.69766 8.19402 5.69766C8.78595 5.69766 9.26378 6.17549 9.26378 6.76743Z" fill="white"/>
</svg>
