<svg width="40" height="40" viewBox="0 0 40 40" fill="none" xmlns="http://www.w3.org/2000/svg">
<path d="M25.9219 15.2095C25.5205 15.2095 25.194 15.5361 25.194 15.9374C25.194 16.3388 25.5205 16.6654 25.9219 16.6654C26.3234 16.6654 26.6499 16.3388 26.6499 15.9374C26.6499 15.536 26.3233 15.2095 25.9219 15.2095Z" fill="url(#paint0_linear_3_1410)"/>
<path d="M14.5629 15.9331C14.1615 15.9331 13.835 16.2597 13.835 16.6611C13.835 17.0625 14.1615 17.389 14.5629 17.389C14.9644 17.389 15.2909 17.0625 15.2909 16.6611C15.2909 16.2597 14.9644 15.9331 14.5629 15.9331Z" fill="url(#paint1_linear_3_1410)"/>
<path d="M21.7153 24.782C21.3138 24.782 20.9873 25.1086 20.9873 25.51C20.9873 25.9113 21.3139 26.2379 21.7153 26.2379C22.1167 26.2379 22.4432 25.9113 22.4432 25.51C22.4432 25.1085 22.1167 24.782 21.7153 24.782Z" fill="url(#paint2_linear_3_1410)"/>
<path d="M20.0934 13.3447C19.6921 13.3447 19.3655 13.6713 19.3655 14.0727C19.3655 14.4741 19.6921 14.8007 20.0934 14.8007C20.4948 14.8007 20.8214 14.4741 20.8214 14.0727C20.8214 13.6713 20.4948 13.3447 20.0934 13.3447Z" fill="url(#paint3_linear_3_1410)"/>
<path d="M30.9809 14.8437L30.9146 14.7179C28.6044 10.4013 23.3826 8.89409 19.2316 9.31517C16.2907 9.61358 13.453 10.9436 11.2413 13.0602C10.0429 14.2071 8.0282 16.4449 8.00031 18.5464C7.98896 19.3997 8.29159 20.1435 8.8997 20.7573C9.52342 21.3867 10.3573 21.5848 11.0908 21.6955C13.2615 22.0232 14.9124 22.6588 15.9143 24.6953C16.165 25.2048 16.2773 25.8653 16.3962 26.5646C16.6085 27.813 16.8492 29.228 18.0166 30.0875C18.6205 30.5321 19.3603 30.7527 20.2585 30.7527C20.6488 30.7527 21.0692 30.711 21.5211 30.6279C23.7331 30.2213 26.1757 28.9724 28.0552 27.2872C29.8052 25.7181 31.0833 23.691 31.654 21.5792C32.2836 19.2498 32.0508 16.9207 30.9809 14.8437ZM14.5629 18.7951C13.3861 18.7951 12.4287 17.8378 12.4287 16.661C12.4287 15.4842 13.3861 14.5268 14.5629 14.5268C15.7397 14.5268 16.697 15.4842 16.697 16.661C16.6971 17.8378 15.7397 18.7951 14.5629 18.7951ZM25.922 13.8031C27.0987 13.8031 28.0561 14.7605 28.0561 15.9373C28.0561 17.1141 27.0988 18.0715 25.922 18.0715C24.7452 18.0715 23.7878 17.1141 23.7878 15.9373C23.7878 14.7605 24.7452 13.8031 25.922 13.8031ZM17.9592 14.0728C17.9592 12.8961 18.9166 11.9386 20.0934 11.9386C21.2702 11.9386 22.2276 12.896 22.2276 14.0728C22.2276 15.2496 21.2702 16.207 20.0934 16.207C18.9166 16.207 17.9592 15.2496 17.9592 14.0728ZM21.7153 27.6441C20.5385 27.6441 19.5811 26.6867 19.5811 25.5099C19.5811 24.3331 20.5385 23.3757 21.7153 23.3757C22.892 23.3757 23.8494 24.3331 23.8494 25.5099C23.8494 26.6867 22.8921 27.6441 21.7153 27.6441ZM26.5273 24.1007C25.3506 24.1007 24.3931 23.1433 24.3931 21.9665C24.3931 20.7897 25.3505 19.8323 26.5273 19.8323C27.7041 19.8323 28.6615 20.7897 28.6615 21.9665C28.6615 23.1433 27.7041 24.1007 26.5273 24.1007Z" fill="url(#paint4_linear_3_1410)"/>
<path d="M26.5273 21.2385C26.1258 21.2385 25.7993 21.5651 25.7993 21.9665C25.7993 22.3679 26.1259 22.6945 26.5273 22.6945C26.9287 22.6945 27.2553 22.3679 27.2553 21.9665C27.2553 21.5651 26.9287 21.2385 26.5273 21.2385Z" fill="url(#paint5_linear_3_1410)"/>
<defs>
<linearGradient id="paint0_linear_3_1410" x1="25.194" y1="15.9374" x2="26.6499" y2="15.9374" gradientUnits="userSpaceOnUse">
<stop stop-color="#EBA01F"/>
<stop offset="1" stop-color="#FAD422"/>
</linearGradient>
<linearGradient id="paint1_linear_3_1410" x1="13.835" y1="16.6611" x2="15.2909" y2="16.6611" gradientUnits="userSpaceOnUse">
<stop stop-color="#EBA01F"/>
<stop offset="1" stop-color="#FAD422"/>
</linearGradient>
<linearGradient id="paint2_linear_3_1410" x1="20.9873" y1="25.51" x2="22.4432" y2="25.51" gradientUnits="userSpaceOnUse">
<stop stop-color="#EBA01F"/>
<stop offset="1" stop-color="#FAD422"/>
</linearGradient>
<linearGradient id="paint3_linear_3_1410" x1="19.3655" y1="14.0727" x2="20.8214" y2="14.0727" gradientUnits="userSpaceOnUse">
<stop stop-color="#EBA01F"/>
<stop offset="1" stop-color="#FAD422"/>
</linearGradient>
<linearGradient id="paint4_linear_3_1410" x1="8" y1="20" x2="32" y2="20" gradientUnits="userSpaceOnUse">
<stop stop-color="#EBA01F"/>
<stop offset="1" stop-color="#FAD422"/>
</linearGradient>
<linearGradient id="paint5_linear_3_1410" x1="25.7993" y1="21.9665" x2="27.2553" y2="21.9665" gradientUnits="userSpaceOnUse">
<stop stop-color="#EBA01F"/>
<stop offset="1" stop-color="#FAD422"/>
</linearGradient>
</defs>
</svg>
