<svg width="30" height="30" viewBox="0 0 30 30" fill="none" xmlns="http://www.w3.org/2000/svg">
<path fill-rule="evenodd" clip-rule="evenodd" d="M20.625 5.625V15.625C20.625 18.3864 18.3864 20.625 15.625 20.625H5.625C2.86358 20.625 0.625 18.3864 0.625 15.625V5.625C0.625 2.86358 2.86358 0.625 5.625 0.625H15.625C18.3864 0.625 20.625 2.86358 20.625 5.625ZM2.5 5.625V15.625C2.5 16.4538 2.82924 17.2487 3.41529 17.8347C4.00134 18.4208 4.7962 18.75 5.625 18.75H15.625C17.3509 18.75 18.75 17.3509 18.75 15.625V5.625C18.75 3.89911 17.3509 2.5 15.625 2.5H5.625C3.89911 2.5 2.5 3.89911 2.5 5.625Z" fill="url(#paint0_linear_41_1609)"/>
<path d="M24.375 8.4375C23.86 8.44423 23.4442 8.86005 23.4375 9.375V19.375C23.4306 21.6158 21.6158 23.4306 19.375 23.4375H9.375C8.85723 23.4375 8.4375 23.8572 8.4375 24.375C8.4375 24.8928 8.85723 25.3125 9.375 25.3125H19.375C22.6542 25.3125 25.3125 22.6542 25.3125 19.375V9.375C25.3058 8.86005 24.89 8.44423 24.375 8.4375Z" fill="url(#paint1_linear_41_1609)"/>
<defs>
<linearGradient id="paint0_linear_41_1609" x1="0.625" y1="12.9688" x2="25.3125" y2="12.9688" gradientUnits="userSpaceOnUse">
<stop stop-color="#EBA01F"/>
<stop offset="1" stop-color="#FAD422"/>
</linearGradient>
<linearGradient id="paint1_linear_41_1609" x1="0.625" y1="12.9688" x2="25.3125" y2="12.9688" gradientUnits="userSpaceOnUse">
<stop stop-color="#EBA01F"/>
<stop offset="1" stop-color="#FAD422"/>
</linearGradient>
</defs>
</svg>
