<svg width="25" height="25" viewBox="0 0 25 25" fill="none" xmlns="http://www.w3.org/2000/svg">
<path d="M19.3021 20.0418H5.62499C5.46128 20.0433 5.30135 19.9926 5.16837 19.8971C5.0354 19.8016 4.93629 19.6662 4.88541 19.5106L1.56249 9.37516C1.51158 9.22942 1.50624 9.07163 1.54718 8.92277C1.58811 8.77392 1.67339 8.64105 1.79166 8.54183C1.90848 8.43934 2.05354 8.37455 2.20783 8.35596C2.36212 8.33737 2.51843 8.36585 2.65624 8.43766L8.71874 11.4585L11.8437 5.396C11.9158 5.27513 12.018 5.17505 12.1403 5.10555C12.2627 5.03605 12.401 4.99951 12.5417 4.99951C12.6824 4.99951 12.8207 5.03605 12.943 5.10555C13.0653 5.17505 13.1675 5.27513 13.2396 5.396L16.3646 11.4689L22.4375 8.44808C22.5737 8.37714 22.7283 8.34913 22.8807 8.36772C23.0332 8.38632 23.1765 8.45065 23.2917 8.55225C23.3914 8.66153 23.458 8.79688 23.4839 8.94257C23.5097 9.08825 23.4936 9.23826 23.4375 9.37516L20.0417 19.5002C19.9926 19.6577 19.8943 19.7954 19.7611 19.8929C19.628 19.9904 19.4671 20.0426 19.3021 20.0418ZM6.24999 18.4793H18.75L21.3646 10.6772L16.2917 13.1981C16.2008 13.2446 16.1017 13.2725 15.9999 13.2804C15.8982 13.2882 15.7959 13.2758 15.699 13.2439C15.6021 13.2119 15.5125 13.161 15.4354 13.0941C15.3584 13.0272 15.2953 12.9457 15.25 12.8543L12.5 7.4585L9.76041 12.8543C9.71507 12.9457 9.65204 13.0272 9.57496 13.0941C9.49789 13.161 9.4083 13.2119 9.3114 13.2439C9.2145 13.2758 9.11222 13.2882 9.01048 13.2804C8.90875 13.2725 8.80958 13.2446 8.71874 13.1981L3.62499 10.646L6.24999 18.4793Z" fill="url(#paint0_linear_48_1584)"/>
<defs>
<linearGradient id="paint0_linear_48_1584" x1="1.51996" y1="12.5207" x2="23.4959" y2="12.5207" gradientUnits="userSpaceOnUse">
<stop stop-color="#EBA01F"/>
<stop offset="1" stop-color="#FAD422"/>
</linearGradient>
</defs>
</svg>
