<svg width="70" height="70" viewBox="0 0 70 70" fill="none" xmlns="http://www.w3.org/2000/svg">
<g clip-path="url(#clip0_9_1385)">
<path d="M30.9989 0.223632C15.2112 1.98484 2.38877 14.5198 0.312423 30.2689C-2.62949 52.5869 15.6164 71.5739 37.7172 69.8967C45.847 69.2797 53.4568 65.6467 59.4194 60.0859L59.9315 59.6085C60.5206 59.0592 60.5528 58.1363 60.0034 57.5473L58.0135 55.4136C57.4641 54.8245 56.5414 54.7923 55.9523 55.3417L54.8855 56.3366C48.2533 62.5206 39.1486 65.3028 29.9639 63.7387C16.9462 61.5216 6.93891 50.4698 5.9224 37.3038C4.57832 19.8936 18.6221 5.34471 35.8646 5.84578C51.7634 6.30803 64.1666 19.8753 64.1666 35.7808V37.9166C64.1666 41.3255 61.2291 44.0596 57.7517 43.7217C54.7212 43.4269 52.5 40.703 52.5 37.658V24.7917C52.5 23.9862 51.8471 23.3333 51.0416 23.3333H48.125C47.5395 23.3333 47.0421 23.6833 46.8101 24.1814C43.8754 20.9804 39.6747 18.9583 35 18.9583C26.1546 18.9583 18.9584 26.1545 18.9584 35C18.9584 43.8454 26.1546 51.0417 35 51.0417C40.572 51.0417 45.4851 48.1831 48.3618 43.8585C50.5277 47.4781 54.5519 49.8635 59.1325 49.5565C65.3263 49.1416 70 43.7124 70 37.5048V35C70 14.383 52.0804 -2.1282 30.9989 0.223632ZM35 45.2083C29.3717 45.2083 24.7916 40.6283 24.7916 35C24.7916 29.3717 29.3717 24.7916 35 24.7916C40.6283 24.7916 45.2084 29.3717 45.2084 35C45.2084 40.6283 40.6283 45.2083 35 45.2083Z" fill="url(#paint0_linear_9_1385)"/>
</g>
<defs>
<linearGradient id="paint0_linear_9_1385" x1="0" y1="35" x2="70" y2="35" gradientUnits="userSpaceOnUse">
<stop stop-color="#EBA01F"/>
<stop offset="1" stop-color="#FAD422"/>
</linearGradient>
<clipPath id="clip0_9_1385">
<rect width="70" height="70" fill="white"/>
</clipPath>
</defs>
</svg>
