<svg width="50" height="50" viewBox="0 0 50 50" fill="none" xmlns="http://www.w3.org/2000/svg">
<path d="M21.5981 8.461C20.1398 9.51465 10.4166 16.9959 10.4166 29.1657C10.4166 31.0808 10.7938 32.9772 11.5267 34.7465C12.2596 36.5159 13.3338 38.1235 14.688 39.4777C16.0422 40.8319 17.6498 41.9061 19.4192 42.639C21.1374 43.3507 22.9754 43.727 24.834 43.7481C20.3082 43.6597 16.6666 39.9633 16.6666 35.4164C16.6666 35.0049 16.6965 34.6004 16.7541 34.2048C16.7565 34.1813 16.7595 34.1576 16.763 34.134C17.4618 29.4385 21.7818 25.4522 23.8709 23.771C24.5385 23.2338 25.4617 23.2338 26.1293 23.7711C28.2183 25.4523 32.5381 29.4385 33.2369 34.134C33.2404 34.1577 33.2434 34.1813 33.2459 34.2049C33.3035 34.6004 33.3333 35.0049 33.3333 35.4164C33.3333 39.9633 29.6917 43.6597 25.1659 43.7481C27.0246 43.727 28.8626 43.3507 30.5808 42.639C32.3501 41.9061 33.9577 40.8319 35.3119 39.4777C36.6661 38.1235 37.7403 36.5159 38.4732 34.7465C39.1813 33.0371 39.5573 31.2092 39.582 29.3603C39.5829 29.3364 39.5833 29.3124 39.5833 29.2883L39.5832 29.2224L39.5833 29.1659C39.5283 20.3312 33.5507 15.5095 32.4611 14.7037C32.3589 14.6281 32.2231 14.629 32.121 14.7046C31.684 15.0278 30.4668 15.9924 29.1598 17.5984C29.0107 17.7816 28.7177 17.7466 28.6168 17.5331C26.1611 12.3361 22.759 9.18171 21.9553 8.48121C21.8516 8.39083 21.7096 8.38045 21.5981 8.461Z" fill="url(#paint0_linear_3_1280)"/>
<defs>
<linearGradient id="paint0_linear_3_1280" x1="10.4166" y1="26.0773" x2="39.5833" y2="26.0773" gradientUnits="userSpaceOnUse">
<stop stop-color="#EBA01F"/>
<stop offset="1" stop-color="#FAD422"/>
</linearGradient>
</defs>
</svg>
