<svg width="25" height="25" viewBox="0 0 25 25" fill="none" xmlns="http://www.w3.org/2000/svg">
<path d="M12.5 23.5416H12.2708C10.2546 23.4291 8.3595 22.5434 6.97994 21.0687C5.60038 19.5941 4.84269 17.6442 4.8646 15.625V13.802C4.86753 13.4787 4.96565 13.1634 5.14669 12.8955C5.32773 12.6276 5.58368 12.4189 5.88257 12.2956C6.18147 12.1723 6.51008 12.1397 6.82737 12.202C7.14467 12.2643 7.43658 12.4186 7.66668 12.6458L8.85418 13.8437C8.89219 13.8836 8.94148 13.911 8.99545 13.9222C9.04943 13.9333 9.10553 13.9278 9.15626 13.9062C9.21538 13.8911 9.26828 13.8579 9.30753 13.8112C9.34677 13.7645 9.37037 13.7066 9.37501 13.6458V5.5208C9.37281 5.03247 9.50851 4.55343 9.7665 4.13881C10.0245 3.72418 10.3943 3.39081 10.8333 3.17705C11.2624 2.95912 11.7444 2.86696 12.2236 2.9112C12.7028 2.95543 13.1597 3.13426 13.5417 3.42705C15.5589 4.83673 17.213 6.7047 18.3682 8.87761C19.5235 11.0505 20.147 13.4664 20.1875 15.927C20.1834 16.932 19.9813 17.9263 19.5926 18.853C19.2039 19.7798 18.6363 20.6208 17.9223 21.328C17.2084 22.0353 16.3619 22.5948 15.4315 22.9746C14.5011 23.3544 13.505 23.5471 12.5 23.5416ZM6.5521 13.75L6.4271 13.802V15.625C6.39746 17.2392 6.99363 18.8023 8.09073 19.9868C9.18784 21.1712 10.7007 21.8852 12.3125 21.9791C13.1253 22.0024 13.9346 21.8632 14.6929 21.5699C15.4513 21.2766 16.1436 20.8349 16.7292 20.2708C17.3144 19.707 17.7795 19.0306 18.0964 18.2823C18.4132 17.534 18.5754 16.7293 18.5729 15.9166C18.5266 13.6997 17.9571 11.5251 16.9108 9.57005C15.8645 7.61501 14.371 5.93488 12.5521 4.66663C12.4022 4.56056 12.2268 4.49601 12.0439 4.47955C11.8609 4.46308 11.6769 4.49528 11.5104 4.57288C11.3335 4.65955 11.1848 4.79462 11.0815 4.9624C10.9783 5.13018 10.9247 5.32381 10.9271 5.5208V13.6458C10.9225 14.0058 10.8126 14.3565 10.611 14.6547C10.4094 14.953 10.1249 15.1857 9.79263 15.3241C9.46034 15.4626 9.09478 15.5007 8.74106 15.4339C8.38734 15.367 8.06093 15.1981 7.8021 14.9479L6.5521 13.75Z" fill="url(#paint0_linear_46_4266)"/>
<defs>
<linearGradient id="paint0_linear_46_4266" x1="4.86414" y1="13.2211" x2="20.1875" y2="13.2211" gradientUnits="userSpaceOnUse">
<stop stop-color="#EBA01F"/>
<stop offset="1" stop-color="#FAD422"/>
</linearGradient>
</defs>
</svg>
