<svg width="19" height="19" viewBox="0 0 19 19" fill="none" xmlns="http://www.w3.org/2000/svg">
<g filter="url(#filter0_i_9_4111)">
<path d="M10.1772 2.76245V5.08541C10.1772 5.22749 10.2336 5.36376 10.3341 5.46423C10.4346 5.5647 10.5708 5.62115 10.7129 5.62115C10.855 5.62115 10.9913 5.5647 11.0918 5.46423C11.1922 5.36376 11.2487 5.22749 11.2487 5.08541V2.76245H11.963V5.79901C11.963 5.9411 12.0194 6.07736 12.1199 6.17783C12.2204 6.2783 12.3566 6.33475 12.4987 6.33475C12.6408 6.33475 12.7771 6.2783 12.8775 6.17783C12.978 6.07736 13.0345 5.9411 13.0345 5.79901V2.76245H14.2845C14.4266 2.76245 14.5629 2.81889 14.6633 2.91936C14.7638 3.01984 14.8203 3.1561 14.8203 3.29819V9.1913H4.81982V3.29819C4.81982 3.1561 4.87627 3.01984 4.97674 2.91936C5.07721 2.81889 5.21348 2.76245 5.35556 2.76245H10.1772ZM4.81982 10.2628V11.5143C4.81982 11.9405 4.98916 12.3493 5.29057 12.6507C5.59198 12.9521 6.00078 13.1215 6.42704 13.1215H8.39141V15.6201C8.39141 15.999 8.54192 16.3624 8.80984 16.6303C9.07776 16.8983 9.44114 17.0488 9.82004 17.0488C10.1989 17.0488 10.5623 16.8983 10.8302 16.6303C11.0982 16.3624 11.2487 15.999 11.2487 15.6201V13.1215H13.213C13.4241 13.1215 13.6331 13.0799 13.8281 12.9991C14.0231 12.9184 14.2003 12.8 14.3495 12.6507C14.4988 12.5015 14.6171 12.3243 14.6979 12.1293C14.7787 11.9343 14.8203 11.7253 14.8203 11.5143V10.2628H4.81982Z" fill="white"/>
</g>
<defs>
<filter id="filter0_i_9_4111" x="0.705566" y="0.705322" width="17.8291" height="18.3293" filterUnits="userSpaceOnUse" color-interpolation-filters="sRGB">
<feFlood flood-opacity="0" result="BackgroundImageFix"/>
<feBlend mode="normal" in="SourceGraphic" in2="BackgroundImageFix" result="shape"/>
<feColorMatrix in="SourceAlpha" type="matrix" values="0 0 0 0 0 0 0 0 0 0 0 0 0 0 0 0 0 0 127 0" result="hardAlpha"/>
<feOffset dy="0.5"/>
<feGaussianBlur stdDeviation="1.25"/>
<feComposite in2="hardAlpha" operator="arithmetic" k2="-1" k3="1"/>
<feColorMatrix type="matrix" values="0 0 0 0 0 0 0 0 0 0 0 0 0 0 0 0 0 0 0.1 0"/>
<feBlend mode="normal" in2="shape" result="effect1_innerShadow_9_4111"/>
</filter>
</defs>
</svg>
