<svg width="50" height="50" viewBox="0 0 50 50" fill="none" xmlns="http://www.w3.org/2000/svg">
<path d="M23.4061 4.94559C22.6404 5.26275 21.954 5.94919 20.5812 7.32195C19.2088 8.6944 18.5221 9.38112 18.2049 10.1467C17.7821 11.1677 17.7821 12.3149 18.2049 13.3359C18.5221 14.1016 19.2085 14.788 20.5813 16.1608C21.9533 17.5328 22.6406 18.2201 23.4061 18.5372C24.427 18.9601 25.5743 18.96 26.5952 18.5372C27.361 18.22 28.0474 17.5336 29.4201 16.1608C30.7929 14.788 31.4773 14.1016 31.7945 13.3359C32.2174 12.3149 32.2174 11.1677 31.7945 10.1467C31.4773 9.38102 30.7929 8.69474 29.4201 7.32195C28.0474 5.94917 27.361 5.26275 26.5952 4.94559C25.5743 4.5227 24.4271 4.5227 23.4061 4.94559Z" fill="#0F0F10"/>
<path d="M10.1473 18.2034C9.38157 18.5206 8.69516 19.207 7.32238 20.5798C5.94997 21.9522 5.2632 22.639 4.94607 23.4046C4.52318 24.4255 4.52318 25.5728 4.94607 26.5937C5.26324 27.3594 5.94965 28.0459 7.32243 29.4186C8.69444 30.7906 9.38173 31.4779 10.1472 31.795C11.1682 32.2179 12.3154 32.2179 13.3364 31.795C14.1021 31.4778 14.7885 30.7914 16.1613 29.4186C17.5341 28.0459 18.2184 27.3595 18.5356 26.5937C18.9585 25.5728 18.9585 24.4255 18.5356 23.4046C18.2184 22.6389 17.5341 21.9526 16.1613 20.5798C14.7885 19.207 14.1021 18.5206 13.3364 18.2034C12.3154 17.7805 11.1682 17.7805 10.1473 18.2034Z" fill="#0F0F10"/>
<path d="M33.8401 20.5798C32.4677 21.9522 31.7809 22.639 31.4638 23.4046C31.0409 24.4255 31.0409 25.5728 31.4638 26.5937C31.781 27.3594 32.4674 28.0459 33.8402 29.4186C35.2122 30.7906 35.8995 31.4779 36.665 31.795C37.6859 32.2179 38.8332 32.2179 39.8541 31.795C40.6198 31.4778 41.3062 30.7914 42.679 29.4186C44.0518 28.0459 44.7362 27.3594 45.0534 26.5937C45.4762 25.5728 45.4762 24.4255 45.0534 23.4046C44.7362 22.6389 44.0518 21.9526 42.679 20.5798C41.3062 19.207 40.6198 18.5206 39.8541 18.2034C38.8332 17.7805 37.686 17.7805 36.665 18.2034C35.8993 18.5206 35.2129 19.207 33.8401 20.5798Z" fill="#0F0F10"/>
<path d="M23.4061 31.4623C22.6404 31.7795 21.954 32.4659 20.5812 33.8387C19.2088 35.2111 18.5221 35.8978 18.2049 36.6635C17.7821 37.6844 17.7821 38.8317 18.2049 39.8526C18.5221 40.6183 19.2085 41.3047 20.5813 42.6775C21.9533 44.0495 22.6406 44.7368 23.4061 45.0539C24.427 45.4768 25.5743 45.4768 26.5952 45.0539C27.361 44.7367 28.0474 44.0503 29.4201 42.6775C30.7929 41.3047 31.4773 40.6183 31.7945 39.8526C32.2174 38.8317 32.2174 37.6844 31.7945 36.6635C31.4773 35.8977 30.7929 35.2115 29.4201 33.8387C28.0474 32.4659 27.361 31.7795 26.5952 31.4623C25.5743 31.0394 24.4271 31.0394 23.4061 31.4623Z" fill="#0F0F10"/>
<path d="M23.4061 4.94559C22.6404 5.26275 21.954 5.94919 20.5812 7.32195C19.2088 8.6944 18.5221 9.38112 18.2049 10.1467C17.7821 11.1677 17.7821 12.3149 18.2049 13.3359C18.5221 14.1016 19.2085 14.788 20.5813 16.1608C21.9533 17.5328 22.6406 18.2201 23.4061 18.5372C24.427 18.9601 25.5743 18.96 26.5952 18.5372C27.361 18.22 28.0474 17.5336 29.4201 16.1608C30.7929 14.788 31.4773 14.1016 31.7945 13.3359C32.2174 12.3149 32.2174 11.1677 31.7945 10.1467C31.4773 9.38102 30.7929 8.69474 29.4201 7.32195C28.0474 5.94917 27.361 5.26275 26.5952 4.94559C25.5743 4.5227 24.4271 4.5227 23.4061 4.94559Z" stroke="#0F0F10" stroke-width="2" stroke-linecap="round" stroke-linejoin="round"/>
<path d="M10.1473 18.2034C9.38157 18.5206 8.69516 19.207 7.32238 20.5798C5.94997 21.9522 5.2632 22.639 4.94607 23.4046C4.52318 24.4255 4.52318 25.5728 4.94607 26.5937C5.26324 27.3594 5.94965 28.0459 7.32243 29.4186C8.69444 30.7906 9.38173 31.4779 10.1472 31.795C11.1682 32.2179 12.3154 32.2179 13.3364 31.795C14.1021 31.4778 14.7885 30.7914 16.1613 29.4186C17.5341 28.0459 18.2184 27.3595 18.5356 26.5937C18.9585 25.5728 18.9585 24.4255 18.5356 23.4046C18.2184 22.6389 17.5341 21.9526 16.1613 20.5798C14.7885 19.207 14.1021 18.5206 13.3364 18.2034C12.3154 17.7805 11.1682 17.7805 10.1473 18.2034Z" stroke="#0F0F10" stroke-width="2" stroke-linecap="round" stroke-linejoin="round"/>
<path d="M33.8401 20.5798C32.4677 21.9522 31.7809 22.639 31.4638 23.4046C31.0409 24.4255 31.0409 25.5728 31.4638 26.5937C31.781 27.3594 32.4674 28.0459 33.8402 29.4186C35.2122 30.7906 35.8995 31.4779 36.665 31.795C37.6859 32.2179 38.8332 32.2179 39.8541 31.795C40.6198 31.4778 41.3062 30.7914 42.679 29.4186C44.0518 28.0459 44.7362 27.3594 45.0534 26.5937C45.4762 25.5728 45.4762 24.4255 45.0534 23.4046C44.7362 22.6389 44.0518 21.9526 42.679 20.5798C41.3062 19.207 40.6198 18.5206 39.8541 18.2034C38.8332 17.7805 37.686 17.7805 36.665 18.2034C35.8993 18.5206 35.2129 19.207 33.8401 20.5798Z" stroke="#0F0F10" stroke-width="2" stroke-linecap="round" stroke-linejoin="round"/>
<path d="M23.4061 31.4623C22.6404 31.7795 21.954 32.4659 20.5812 33.8387C19.2088 35.2111 18.5221 35.8978 18.2049 36.6635C17.7821 37.6844 17.7821 38.8317 18.2049 39.8526C18.5221 40.6183 19.2085 41.3047 20.5813 42.6775C21.9533 44.0495 22.6406 44.7368 23.4061 45.0539C24.427 45.4768 25.5743 45.4768 26.5952 45.0539C27.361 44.7367 28.0474 44.0503 29.4201 42.6775C30.7929 41.3047 31.4773 40.6183 31.7945 39.8526C32.2174 38.8317 32.2174 37.6844 31.7945 36.6635C31.4773 35.8977 30.7929 35.2115 29.4201 33.8387C28.0474 32.4659 27.361 31.7795 26.5952 31.4623C25.5743 31.0394 24.4271 31.0394 23.4061 31.4623Z" stroke="#0F0F10" stroke-width="2" stroke-linecap="round" stroke-linejoin="round"/>
</svg>
