<svg width="50" height="50" viewBox="0 0 50 50" fill="none" xmlns="http://www.w3.org/2000/svg">
<path d="M23.4058 4.94559C22.6401 5.26275 21.9536 5.94919 20.5809 7.32195C19.2084 8.6944 18.5217 9.38112 18.2046 10.1467C17.7817 11.1677 17.7817 12.3149 18.2046 13.3359C18.5217 14.1016 19.2081 14.788 20.5809 16.1608C21.953 17.5328 22.6402 18.2201 23.4057 18.5372C24.4267 18.9601 25.5739 18.96 26.5949 18.5372C27.3606 18.22 28.047 17.5336 29.4198 16.1608C30.7926 14.788 31.477 14.1016 31.7941 13.3359C32.217 12.3149 32.217 11.1677 31.7941 10.1467C31.477 9.38102 30.7926 8.69474 29.4198 7.32195C28.047 5.94917 27.3606 5.26275 26.5949 4.94559C25.5739 4.5227 24.4267 4.5227 23.4058 4.94559Z" stroke="#FFEA00" stroke-width="2" stroke-linecap="round" stroke-linejoin="round"/>
<path d="M10.1469 18.2034C9.3812 18.5206 8.6948 19.207 7.32201 20.5798C5.94961 21.9522 5.26283 22.639 4.94571 23.4046C4.52282 24.4255 4.52282 25.5728 4.94571 26.5937C5.26288 27.3594 5.94929 28.0459 7.32207 29.4186C8.69408 30.7906 9.38136 31.4779 10.1469 31.795C11.1678 32.2179 12.3151 32.2179 13.336 31.795C14.1017 31.4778 14.7881 30.7914 16.1609 29.4186C17.5337 28.0459 18.2181 27.3595 18.5352 26.5937C18.9581 25.5728 18.9581 24.4255 18.5352 23.4046C18.2181 22.6389 17.5337 21.9526 16.1609 20.5798C14.7881 19.207 14.1017 18.5206 13.336 18.2034C12.3151 17.7805 11.1679 17.7805 10.1469 18.2034Z" stroke="#FFEA00" stroke-width="2" stroke-linecap="round" stroke-linejoin="round"/>
<path d="M33.8398 20.5798C32.4673 21.9522 31.7806 22.639 31.4634 23.4046C31.0406 24.4255 31.0406 25.5728 31.4634 26.5937C31.7806 27.3594 32.467 28.0459 33.8398 29.4186C35.2118 30.7906 35.8991 31.4779 36.6646 31.795C37.6855 32.2179 38.8328 32.2179 39.8537 31.795C40.6195 31.4778 41.3059 30.7914 42.6786 29.4186C44.0514 28.0459 44.7358 27.3594 45.053 26.5937C45.4759 25.5728 45.4759 24.4255 45.053 23.4046C44.7358 22.6389 44.0514 21.9526 42.6786 20.5798C41.3059 19.207 40.6195 18.5206 39.8537 18.2034C38.8328 17.7805 37.6856 17.7805 36.6647 18.2034C35.8989 18.5206 35.2125 19.207 33.8398 20.5798Z" stroke="#FFEA00" stroke-width="2" stroke-linecap="round" stroke-linejoin="round"/>
<path d="M23.4058 31.4623C22.6401 31.7795 21.9537 32.4659 20.5809 33.8387C19.2085 35.2111 18.5217 35.8978 18.2046 36.6635C17.7817 37.6844 17.7817 38.8317 18.2046 39.8526C18.5217 40.6183 19.2082 41.3047 20.5809 42.6775C21.9529 44.0495 22.6402 44.7368 23.4057 45.0539C24.4267 45.4768 25.5739 45.4768 26.5949 45.0539C27.3606 44.7367 28.047 44.0503 29.4198 42.6775C30.7926 41.3047 31.477 40.6183 31.7941 39.8526C32.217 38.8317 32.217 37.6844 31.7941 36.6635C31.477 35.8977 30.7926 35.2115 29.4198 33.8387C28.047 32.4659 27.3606 31.7795 26.5949 31.4623C25.5739 31.0394 24.4267 31.0394 23.4058 31.4623Z" stroke="#FFEA00" stroke-width="2" stroke-linecap="round" stroke-linejoin="round"/>
</svg>
