<svg width="25" height="25" viewBox="0 0 25 25" fill="none" xmlns="http://www.w3.org/2000/svg">
<path d="M17.4896 22.8128H7.0729C6.5568 22.8169 6.04498 22.719 5.56686 22.5247C5.08874 22.3304 4.65374 22.0434 4.28686 21.6804C3.91999 21.3174 3.62847 20.8855 3.42908 20.4095C3.22968 19.9334 3.12633 19.4227 3.12498 18.9066V8.48991C3.11947 7.97344 3.21644 7.461 3.41028 6.98225C3.60412 6.5035 3.89098 6.06795 4.25426 5.7008C4.61753 5.33364 5.05002 5.04218 5.52668 4.84327C6.00335 4.64436 6.51473 4.54196 7.03123 4.54199H17.4479C18.4839 4.54199 19.4775 4.95354 20.21 5.68611C20.9426 6.41867 21.3541 7.41224 21.3541 8.44824V18.8649C21.3625 19.9001 20.9607 20.8965 20.2365 21.6363C19.5123 22.3761 18.5247 22.7991 17.4896 22.8128ZM7.0729 6.14616C6.7651 6.14064 6.45923 6.19581 6.17275 6.30852C5.88628 6.42123 5.62482 6.58928 5.4033 6.80305C5.18179 7.01683 5.00456 7.27216 4.88173 7.55444C4.75891 7.83673 4.6929 8.14044 4.68748 8.44824V18.8649C4.68194 19.1762 4.73848 19.4854 4.85378 19.7746C4.96909 20.0638 5.14085 20.3271 5.35904 20.5492C5.57723 20.7713 5.83748 20.9476 6.12458 21.068C6.41169 21.1884 6.71991 21.2504 7.03123 21.2503H17.4479C17.7557 21.2503 18.0605 21.1897 18.3448 21.0719C18.6292 20.9541 18.8875 20.7815 19.1052 20.5639C19.3228 20.3462 19.4955 20.0878 19.6132 19.8035C19.731 19.5191 19.7916 19.2144 19.7916 18.9066V8.48991C19.7916 8.18212 19.731 7.87735 19.6132 7.59299C19.4955 7.30864 19.3228 7.05026 19.1052 6.83263C18.8875 6.61499 18.6292 6.44235 18.3448 6.32457C18.0605 6.20678 17.7557 6.14616 17.4479 6.14616H7.0729Z" fill="url(#paint0_linear_48_1588)"/>
<path d="M20.6145 14.6982H3.94788C3.74068 14.6982 3.54196 14.6159 3.39545 14.4694C3.24894 14.3229 3.16663 14.1242 3.16663 13.917C3.16663 13.7098 3.24894 13.5111 3.39545 13.3646C3.54196 13.2181 3.74068 13.1357 3.94788 13.1357H20.6145C20.8217 13.1357 21.0205 13.2181 21.167 13.3646C21.3135 13.5111 21.3958 13.7098 21.3958 13.917C21.3958 14.1242 21.3135 14.3229 21.167 14.4694C21.0205 14.6159 20.8217 14.6982 20.6145 14.6982Z" fill="url(#paint1_linear_48_1588)"/>
<path d="M12.2604 6.1043C12.0533 6.10412 11.8547 6.02169 11.7083 5.87514L8.96872 3.12514C8.8406 2.9819 8.76978 2.79647 8.76978 2.6043C8.76978 2.41213 8.8406 2.22671 8.96872 2.08347C9.04053 2.00977 9.12638 1.95119 9.2212 1.91119C9.31602 1.87119 9.41789 1.85059 9.5208 1.85059C9.62371 1.85059 9.72558 1.87119 9.8204 1.91119C9.91521 1.95119 10.0011 2.00977 10.0729 2.08347L12.2604 4.1668L14.5104 1.92722C14.5822 1.85352 14.6681 1.79494 14.7629 1.75494C14.8577 1.71494 14.9596 1.69434 15.0625 1.69434C15.1654 1.69434 15.2672 1.71494 15.3621 1.75494C15.4569 1.79494 15.5427 1.85352 15.6145 1.92722C15.7028 1.99978 15.774 2.0908 15.8232 2.19387C15.8724 2.29693 15.8984 2.40954 15.8994 2.52375C15.9004 2.63796 15.8764 2.751 15.8289 2.8549C15.7815 2.95881 15.7119 3.05105 15.625 3.12514L12.8125 5.87514C12.6661 6.02169 12.4675 6.10412 12.2604 6.1043Z" fill="url(#paint2_linear_48_1588)"/>
<path d="M12.2604 22.8127C12.054 22.81 11.8569 22.7268 11.7109 22.5809C11.565 22.4349 11.4818 22.2378 11.4791 22.0314V5.36475C11.4791 5.15755 11.5614 4.95883 11.7079 4.81232C11.8545 4.66581 12.0532 4.5835 12.2604 4.5835C12.4676 4.5835 12.6663 4.66581 12.8128 4.81232C12.9593 4.95883 13.0416 5.15755 13.0416 5.36475V22.0314C13.0389 22.2378 12.9558 22.4349 12.8098 22.5809C12.6639 22.7268 12.4667 22.81 12.2604 22.8127Z" fill="url(#paint3_linear_48_1588)"/>
<defs>
<linearGradient id="paint0_linear_48_1588" x1="3.12476" y1="13.6775" x2="21.3543" y2="13.6775" gradientUnits="userSpaceOnUse">
<stop stop-color="#EBA01F"/>
<stop offset="1" stop-color="#FAD422"/>
</linearGradient>
<linearGradient id="paint1_linear_48_1588" x1="3.16663" y1="13.917" x2="21.3958" y2="13.917" gradientUnits="userSpaceOnUse">
<stop stop-color="#EBA01F"/>
<stop offset="1" stop-color="#FAD422"/>
</linearGradient>
<linearGradient id="paint2_linear_48_1588" x1="8.76978" y1="3.89932" x2="15.8995" y2="3.89932" gradientUnits="userSpaceOnUse">
<stop stop-color="#EBA01F"/>
<stop offset="1" stop-color="#FAD422"/>
</linearGradient>
<linearGradient id="paint3_linear_48_1588" x1="11.4791" y1="13.6981" x2="13.0416" y2="13.6981" gradientUnits="userSpaceOnUse">
<stop stop-color="#EBA01F"/>
<stop offset="1" stop-color="#FAD422"/>
</linearGradient>
</defs>
</svg>
