<svg width="50" height="50" viewBox="0 0 50 50" fill="none" xmlns="http://www.w3.org/2000/svg">
<path d="M24.6041 7L8.60413 14L24.6041 21L40.6041 14L24.6041 7Z" fill="url(#paint0_linear_3_275)" stroke="url(#paint1_linear_3_275)" stroke-width="2" stroke-linejoin="round"/>
<path fill-rule="evenodd" clip-rule="evenodd" d="M20.7339 19.0498L8.60608 24.2475C8.2384 24.405 8 24.7666 8 25.1666C8 25.5666 8.2384 25.9282 8.60608 26.0857L24.2102 32.7732C24.4618 32.881 24.7465 32.881 24.998 32.7732L40.6022 26.0857C40.9698 25.9282 41.2082 25.5666 41.2082 25.1666C41.2082 24.7666 40.9698 24.405 40.6022 24.2475L28.4743 19.0498L25.9357 20.1378L37.6697 25.1666L24.6041 30.7661L11.5386 25.1666L23.2725 20.1378L20.7339 19.0498Z" fill="url(#paint2_linear_3_275)"/>
<path fill-rule="evenodd" clip-rule="evenodd" d="M19.4649 31.8275L9 36.3125L24.6041 43L40.2082 36.3125L29.7433 31.8275L25.392 33.6924C24.8889 33.908 24.3194 33.908 23.8163 33.6924L19.4649 31.8275ZM24.5421 29.6516L24.6041 29.625L24.6661 29.6516L24.6041 29.6781L24.5421 29.6516Z" fill="url(#paint3_linear_3_275)"/>
<defs>
<linearGradient id="paint0_linear_3_275" x1="8.60413" y1="14" x2="40.6041" y2="14" gradientUnits="userSpaceOnUse">
<stop stop-color="#27A5DB"/>
<stop offset="1" stop-color="#11DBF2"/>
</linearGradient>
<linearGradient id="paint1_linear_3_275" x1="8.60413" y1="14" x2="40.6041" y2="14" gradientUnits="userSpaceOnUse">
<stop stop-color="#27A5DB"/>
<stop offset="1" stop-color="#11DBF2"/>
</linearGradient>
<linearGradient id="paint2_linear_3_275" x1="8" y1="25.9519" x2="41.2082" y2="25.9519" gradientUnits="userSpaceOnUse">
<stop stop-color="#27A5DB"/>
<stop offset="1" stop-color="#11DBF2"/>
</linearGradient>
<linearGradient id="paint3_linear_3_275" x1="9" y1="36.3125" x2="40.2082" y2="36.3125" gradientUnits="userSpaceOnUse">
<stop stop-color="#27A5DB"/>
<stop offset="1" stop-color="#11DBF2"/>
</linearGradient>
</defs>
</svg>
