<svg width="50" height="50" viewBox="0 0 50 50" fill="none" xmlns="http://www.w3.org/2000/svg">
<path d="M25 8.33325L10.4166 14.5833L25 20.8333L39.5833 14.5833L25 8.33325Z" stroke="#FFEA00" stroke-width="2" stroke-linejoin="round"/>
<path fill-rule="evenodd" clip-rule="evenodd" d="M18.7615 20.3357L10.0227 24.0809C9.65502 24.2384 9.41663 24.6 9.41663 25C9.41663 25.4 9.65502 25.7616 10.0227 25.9191L24.606 32.1691C24.8576 32.277 25.1423 32.277 25.3939 32.1691L39.9772 25.9191C40.3449 25.7616 40.5833 25.4 40.5833 25C40.5833 24.6 40.3449 24.2384 39.9772 24.0809L31.2384 20.3357L28.6998 21.4236L37.0447 25L25 30.162L12.9552 25L21.3001 21.4236L18.7615 20.3357ZM23.8387 18.1597L24.606 17.8309C24.8576 17.723 25.1423 17.723 25.3939 17.8309L26.1612 18.1597L25 18.6574L23.8387 18.1597Z" fill="#FFEA00"/>
<path fill-rule="evenodd" clip-rule="evenodd" d="M18.7615 30.7524L10.0227 34.4976C9.65502 34.6552 9.41663 35.0167 9.41663 35.4167C9.41663 35.8168 9.65502 36.1783 10.0227 36.3359L24.606 42.5859C24.8576 42.6937 25.1423 42.6937 25.3939 42.5859L39.9772 36.3359C40.3449 36.1783 40.5833 35.8168 40.5833 35.4167C40.5833 35.0167 40.3449 34.6552 39.9772 34.4976L31.2384 30.7524L28.6998 31.8404L37.0447 35.4167L25 40.5788L12.9552 35.4167L21.3001 31.8404L18.7615 30.7524ZM23.8387 28.5765L24.606 28.2476C24.8576 28.1398 25.1423 28.1398 25.3939 28.2476L26.1612 28.5765L25 29.0741L23.8387 28.5765Z" fill="#FFEA00"/>
</svg>
