<svg width="25" height="25" viewBox="0 0 25 25" fill="none" xmlns="http://www.w3.org/2000/svg">
<path d="M12.2917 23.3124C3.22917 23.3124 3.125 14.2811 3.125 14.1874V5.76031C3.12467 5.61189 3.16662 5.46645 3.24594 5.341C3.32527 5.21556 3.43869 5.1153 3.57292 5.05198L11.9583 1.11448C12.0633 1.06797 12.1769 1.04395 12.2917 1.04395C12.4065 1.04395 12.52 1.06797 12.625 1.11448L20.9583 5.05198C21.0945 5.11379 21.2101 5.2134 21.2913 5.33896C21.3726 5.46452 21.4161 5.61076 21.4167 5.76031V14.1874C21.4583 14.2603 21.3542 23.3124 12.2917 23.3124ZM4.6875 6.26031V14.1874C4.6875 14.4999 4.80209 21.7499 12.2917 21.7499C19.7813 21.7499 19.8958 14.4582 19.8958 14.1874V6.26031L12.2917 2.6874L4.6875 6.26031Z" fill="url(#paint0_linear_47_1566)"/>
<path d="M12.2917 23.3123C12.0845 23.3123 11.8858 23.23 11.7393 23.0835C11.5927 22.937 11.5104 22.7383 11.5104 22.5311V1.82275C11.5104 1.61555 11.5927 1.41684 11.7393 1.27033C11.8858 1.12381 12.0845 1.0415 12.2917 1.0415C12.4989 1.0415 12.6976 1.12381 12.8441 1.27033C12.9906 1.41684 13.0729 1.61555 13.0729 1.82275V22.5311C13.0702 22.7374 12.9871 22.9346 12.8411 23.0805C12.6952 23.2265 12.498 23.3096 12.2917 23.3123Z" fill="url(#paint1_linear_47_1566)"/>
<path d="M20.6771 12.958H3.95831C3.75111 12.958 3.5524 12.8757 3.40589 12.7292C3.25937 12.5827 3.17706 12.384 3.17706 12.1768C3.17706 11.9696 3.25937 11.7708 3.40589 11.6243C3.5524 11.4778 3.75111 11.3955 3.95831 11.3955H20.7291C20.9363 11.3955 21.1351 11.4778 21.2816 11.6243C21.4281 11.7708 21.5104 11.9696 21.5104 12.1768C21.5104 12.384 21.4281 12.5827 21.2816 12.7292C21.1351 12.8757 20.9363 12.958 20.7291 12.958H20.6771Z" fill="url(#paint2_linear_47_1566)"/>
<defs>
<linearGradient id="paint0_linear_47_1566" x1="3.125" y1="12.1782" x2="21.4208" y2="12.1782" gradientUnits="userSpaceOnUse">
<stop stop-color="#EBA01F"/>
<stop offset="1" stop-color="#FAD422"/>
</linearGradient>
<linearGradient id="paint1_linear_47_1566" x1="11.5104" y1="12.1769" x2="13.0729" y2="12.1769" gradientUnits="userSpaceOnUse">
<stop stop-color="#EBA01F"/>
<stop offset="1" stop-color="#FAD422"/>
</linearGradient>
<linearGradient id="paint2_linear_47_1566" x1="3.17706" y1="12.1768" x2="21.5104" y2="12.1768" gradientUnits="userSpaceOnUse">
<stop stop-color="#EBA01F"/>
<stop offset="1" stop-color="#FAD422"/>
</linearGradient>
</defs>
</svg>
