<svg width="70" height="72" viewBox="0 0 70 72" fill="none" xmlns="http://www.w3.org/2000/svg">
<path d="M54.4367 23.1117L54.4441 23.1056L54.7703 22.8362C55.283 22.3686 62.8367 15.4717 63.8131 14.5506C63.8744 14.3485 63.9977 13.8493 64.0391 12.9965L64.0391 12.9956C64.0449 12.8806 64.0255 12.6993 63.9871 12.5102C63.9688 12.4198 63.9479 12.3364 63.9277 12.269C63.9177 12.2354 63.9085 12.2078 63.9006 12.1867C63.8977 12.1788 63.8952 12.1725 63.8932 12.1678C63.8235 12.0572 63.7686 11.972 63.7214 11.9165C63.6788 11.883 63.6119 11.8345 63.5441 11.7853C63.5122 11.7622 63.4801 11.7389 63.4503 11.717L63.4462 11.714L63.2995 11.6039L63.2985 11.6032C61.4087 10.1788 59.0423 8.60936 56.4935 7.4285C53.9405 6.24568 51.238 5.46844 48.6652 5.58829L48.6649 5.5883C46.8987 5.66954 44.8456 6.31514 42.6183 7.39589C40.3962 8.47412 38.0304 9.97084 35.646 11.7222C30.8771 15.2251 26.0692 19.7207 22.2378 23.845L22.2378 23.8451C18.4057 27.9688 14.2735 33.0929 11.1282 38.1044C9.5556 40.6102 8.23556 43.0786 7.32241 45.3728C6.40711 47.6723 5.91315 49.7661 5.96118 51.5322L5.96121 51.5335C5.99364 52.8567 6.28218 54.2983 6.83023 55.826L6.83029 55.8262C8.21995 59.7042 10.9634 63.3277 13.0412 65.7025L13.0454 65.7072C13.0542 65.7177 13.0674 65.7333 13.0836 65.7526C13.1527 65.8347 13.2779 65.9835 13.3717 66.0839C13.398 66.0979 13.4376 66.1179 13.4926 66.1428C13.6247 66.2025 13.8484 66.2914 14.1921 66.3914L14.1975 66.393C14.1976 66.393 14.1982 66.3932 14.1994 66.3934C14.207 66.3951 14.2376 66.4016 14.2951 66.4083C14.3643 66.4163 14.4612 66.4232 14.5837 66.4232C14.7528 66.4232 14.9041 66.4096 15.0219 66.3923C15.0807 66.3837 15.1292 66.3744 15.1655 66.3662L54.4367 23.1117ZM54.4367 23.1117L54.4296 23.1181C54.2982 23.2353 54.0484 23.4542 53.8034 23.5748C53.1663 23.8843 52.3122 23.7639 51.7584 23.2497L51.7575 23.2489L48.1365 19.9037L54.4367 23.1117ZM48.4317 0.516703L48.4314 0.516717C45.6061 0.647031 42.5835 1.69427 39.5944 3.23116C36.6007 4.77043 33.6099 6.81692 30.8411 8.98014C25.3038 13.3064 20.6159 18.1303 18.5171 20.3881L18.517 20.3882C16.4189 22.6465 11.9502 27.6743 8.03997 33.5115C6.08477 36.4302 4.26224 39.5615 2.94587 42.6582C1.63164 45.7498 0.808166 48.8387 0.88481 51.6634C0.931228 53.5409 1.32545 55.5191 2.05002 57.5402C3.71819 62.193 6.87905 66.3706 9.18703 69.0073C9.18771 69.008 9.18838 69.0088 9.18906 69.0096L9.19035 69.0112L9.20653 69.0301L9.26536 69.0985C9.31487 69.1558 9.38344 69.2347 9.45953 69.3207C9.60645 69.4868 9.79862 69.699 9.93327 69.8257L9.93616 69.8284C10.6066 70.4495 11.5518 70.9116 12.7741 71.2667L12.7744 71.2668C13.443 71.4606 14.1329 71.4999 14.5823 71.4999C15.0791 71.4999 16.0708 71.4518 16.9924 71.1083L16.9926 71.1082C18.1775 70.666 19.0769 70.1411 19.7015 69.4765L19.7036 69.4742C19.822 69.3467 20.3979 68.6262 21.1659 67.6569C21.9456 66.6728 22.9476 65.4012 23.9379 64.1417C25.9076 61.6366 27.86 59.1433 27.8929 59.096L27.8931 59.0961L27.9008 59.0843L27.9396 59.0251C28.3687 58.4636 28.7085 57.8724 28.9468 57.2644L28.9468 57.2643C29.5712 55.6703 29.5959 53.9056 29.02 52.2935L29.0199 52.2931C28.6526 51.2673 28.0448 50.3413 27.2696 49.6235C27.2694 49.6233 27.2693 49.6231 27.2691 49.6229L23.656 46.2476L23.6556 46.2472C23.5276 46.1279 23.3804 45.9392 23.2557 45.7453C23.195 45.6509 23.1444 45.5627 23.1079 45.4907C23.0774 45.4306 23.0642 45.3966 23.0601 45.3856C23.0482 45.3195 23.0396 45.2616 23.0335 45.2114L43.7825 22.884C43.8402 22.925 43.9058 22.9734 43.9776 23.0284C44.1875 23.1892 44.442 23.3995 44.6949 23.633L48.311 26.9733C48.3111 26.9734 48.3112 26.9734 48.3113 26.9735C50.3629 28.8812 53.5419 29.3545 56.0348 28.1382C56.8955 27.7186 57.5405 27.1515 57.8427 26.8857L57.8638 26.8672L58.0188 26.7418L58.0262 26.7359L58.0333 26.7297C58.0764 26.6921 60.3721 24.6008 62.6894 22.482C63.8503 21.4205 65.02 20.3491 65.9209 19.5198C66.8015 18.7091 67.4561 18.1019 67.5655 17.9841C68.5383 16.937 69.0132 15.3462 69.1133 13.2402C69.1716 12.012 68.8178 10.473 68.2381 9.54029L68.2371 9.53866C67.8897 8.98458 67.5508 8.544 67.2024 8.22016C67.009 8.03926 66.6338 7.75649 66.3973 7.58237C61.9958 4.26364 55.1283 0.211994 48.4317 0.516703ZM15.9155 66.0402C15.7916 66.1105 15.5724 66.2199 15.2183 66.3525L48.136 19.9033C47.918 19.7014 47.5297 19.3548 47.0776 19.0084C46.6313 18.6664 46.0951 18.303 45.5848 18.0891L45.5836 18.0886C44.9321 17.8173 44.344 17.6821 43.6613 17.6805L43.652 17.6805L43.6427 17.6808C42.3482 17.7263 41.1427 18.2763 40.2374 19.2374L40.2351 19.2398L18.9614 42.132L18.9612 42.1322C18.007 43.1602 17.7525 44.6103 18.0695 46.3286L18.0695 46.3287C18.3276 47.7261 19.3548 49.1791 20.1889 49.9584L20.189 49.9584L23.8105 53.3408L23.8118 53.342C23.9911 53.5083 24.1421 53.7374 24.2399 54.0065C24.4 54.4553 24.392 54.9715 24.219 55.4128L24.2188 55.4133C24.1215 55.6623 23.9523 55.8815 23.8848 55.9675L23.8828 55.97C23.8171 56.0549 23.7634 56.1301 23.7174 56.2021C22.9338 57.2119 16.6603 65.1939 16.0236 65.9739C16.0023 65.9883 15.9673 66.0108 15.9155 66.0402Z" fill="url(#paint0_linear_9_1417)" stroke="url(#paint1_linear_9_1417)"/>
<defs>
<linearGradient id="paint0_linear_9_1417" x1="1.37988" y1="36.0002" x2="68.6196" y2="36.0002" gradientUnits="userSpaceOnUse">
<stop stop-color="#EBA01F"/>
<stop offset="1" stop-color="#FAD422"/>
</linearGradient>
<linearGradient id="paint1_linear_9_1417" x1="1.37988" y1="36.0002" x2="68.6196" y2="36.0002" gradientUnits="userSpaceOnUse">
<stop stop-color="#EBA01F"/>
<stop offset="1" stop-color="#FAD422"/>
</linearGradient>
</defs>
</svg>
