<svg width="30" height="30" viewBox="0 0 30 30" fill="none" xmlns="http://www.w3.org/2000/svg">
<path fill-rule="evenodd" clip-rule="evenodd" d="M8.85 4.01247C9.77868 4.01276 10.6307 4.52781 11.0625 5.34997L13.525 10.1C13.9259 10.8738 13.8949 11.8006 13.4431 12.5459C12.9913 13.2912 12.184 13.7474 11.3125 13.75H6.3875C5.50708 13.7651 4.68364 13.3159 4.21972 12.5675C3.7558 11.8191 3.71982 10.8818 4.125 10.1L6.625 5.34997C7.05892 4.52382 7.91684 4.0081 8.85 4.01247ZM11.3125 11.9C11.5319 11.9012 11.7359 11.7874 11.85 11.6V11.575C11.9638 11.4044 11.9827 11.1876 11.9 11L9.4 6.24997C9.30616 6.0501 9.10818 5.91973 8.8875 5.91247C8.65326 5.90426 8.43487 6.03044 8.325 6.23747L5.825 10.9875C5.72398 11.1824 5.73267 11.4161 5.84789 11.603C5.96311 11.7899 6.16795 11.9026 6.3875 11.9H11.3125Z" fill="url(#paint0_linear_22_1682)"/>
<path fill-rule="evenodd" clip-rule="evenodd" d="M26.125 8.75C26.125 11.5114 23.8864 13.75 21.125 13.75C18.3636 13.75 16.125 11.5114 16.125 8.75C16.125 5.98858 18.3636 3.75 21.125 3.75C23.8864 3.75 26.125 5.98858 26.125 8.75ZM24.25 8.75C24.25 7.02411 22.8509 5.625 21.125 5.625C20.2962 5.625 19.5013 5.95424 18.9153 6.54029C18.3292 7.12634 18 7.9212 18 8.75C18 10.4759 19.3991 11.875 21.125 11.875C22.8509 11.875 24.25 10.4759 24.25 8.75Z" fill="url(#paint1_linear_22_1682)"/>
<path fill-rule="evenodd" clip-rule="evenodd" d="M18.625 16.25H23.625C25.0057 16.25 26.125 17.3693 26.125 18.75V23.75C26.125 25.1307 25.0057 26.25 23.625 26.25H18.625C17.2443 26.25 16.125 25.1307 16.125 23.75V18.75C16.125 17.3693 17.2443 16.25 18.625 16.25ZM23.625 24.375C23.9702 24.375 24.25 24.0952 24.25 23.75V18.75C24.25 18.4048 23.9702 18.125 23.625 18.125H18.625C18.2798 18.125 18 18.4048 18 18.75V23.75C18 24.0952 18.2798 24.375 18.625 24.375H23.625Z" fill="url(#paint2_linear_22_1682)"/>
<path d="M13.2625 16.45C13.0884 16.2713 12.8495 16.1705 12.6 16.1705C12.3505 16.1705 12.1116 16.2713 11.9375 16.45L8.85 19.5375L5.7625 16.45C5.39311 16.1058 4.81749 16.116 4.46047 16.473C4.10346 16.83 4.0933 17.4056 4.4375 17.775L7.5 20.8625L4.4375 23.95C4.25882 24.1241 4.15804 24.363 4.15804 24.6125C4.15804 24.862 4.25882 25.1009 4.4375 25.275C4.61465 25.4486 4.85198 25.5471 5.1 25.55C5.3475 25.5446 5.58394 25.4465 5.7625 25.275L8.85 22.1875L11.9375 25.275C12.1147 25.4486 12.352 25.5471 12.6 25.55C12.8475 25.5446 13.0839 25.4465 13.2625 25.275C13.6281 24.909 13.6281 24.316 13.2625 23.95L10.175 20.8625L13.2625 17.775C13.6281 17.409 13.6281 16.816 13.2625 16.45Z" fill="url(#paint3_linear_22_1682)"/>
<defs>
<linearGradient id="paint0_linear_22_1682" x1="3.8446" y1="15" x2="26.125" y2="15" gradientUnits="userSpaceOnUse">
<stop stop-color="#EBA01F"/>
<stop offset="1" stop-color="#FAD422"/>
</linearGradient>
<linearGradient id="paint1_linear_22_1682" x1="3.8446" y1="15" x2="26.125" y2="15" gradientUnits="userSpaceOnUse">
<stop stop-color="#EBA01F"/>
<stop offset="1" stop-color="#FAD422"/>
</linearGradient>
<linearGradient id="paint2_linear_22_1682" x1="3.8446" y1="15" x2="26.125" y2="15" gradientUnits="userSpaceOnUse">
<stop stop-color="#EBA01F"/>
<stop offset="1" stop-color="#FAD422"/>
</linearGradient>
<linearGradient id="paint3_linear_22_1682" x1="3.8446" y1="15" x2="26.125" y2="15" gradientUnits="userSpaceOnUse">
<stop stop-color="#EBA01F"/>
<stop offset="1" stop-color="#FAD422"/>
</linearGradient>
</defs>
</svg>
