<svg width="50" height="50" viewBox="0 0 50 50" fill="none" xmlns="http://www.w3.org/2000/svg">
<g clip-path="url(#clip0_3_242)">
<path d="M41.9355 8.06445H8.06452V20.9677H0V22.5806H8.06452V41.9354H41.9355V22.5806H50V20.9677H41.9355V8.06445ZM19.3548 12.9032H22.5806V14.5161H19.3548V12.9032ZM9.67742 9.67736H17.7419V17.7419H9.67742V9.67736ZM17.7419 40.3225H9.67742V32.258H17.7419V40.3225ZM12.9032 30.6451V29.0322H14.5161V30.6451H12.9032ZM40.3226 40.3225H19.3548V30.6451H16.129V27.4193H11.2903V30.6451H9.67742V22.5806H11.2903V25.8064H16.129V22.5806H19.3548V25.8064H27.4194V22.5806H30.6452V32.258H38.7097V27.4193H35.4839V25.8064H38.7097V22.5806H40.3226V40.3225ZM12.9032 24.1935V22.5806H14.5161V24.1935H12.9032ZM25.8065 22.5806V24.1935H20.9677V22.5806H24.1935H25.8065ZM24.1935 20.9677V19.3548H25.8065V20.9677H24.1935ZM37.0968 29.0322V30.6451H32.2581V22.5806H37.0968V24.1935H33.871V29.0322H37.0968ZM40.3226 20.9677H38.7097H30.6452H27.4194V17.7419H22.5806V20.9677H19.3548H16.129H11.2903H9.67742V19.3548H19.3548V16.129H24.1935V11.2903H19.3548V9.67736H30.6452V11.2903H27.4194V16.129H30.6452V19.3548H40.3226V20.9677ZM30.6452 12.9032V14.5161H29.0323V12.9032H30.6452ZM40.3226 17.7419H32.2581V9.67736H40.3226V17.7419Z" fill="#0F0F10"/>
<path d="M11.2903 16.129H16.129V11.2903H11.2903V16.129ZM12.9032 12.9032H14.5161V14.5161H12.9032V12.9032Z" fill="#0F0F10"/>
<path d="M16.129 33.8708H11.2903V38.7096H16.129V33.8708ZM14.5161 37.0967H12.9032V35.4838H14.5161V37.0967Z" fill="#0F0F10"/>
<path d="M38.7097 11.2903H33.871V16.129H38.7097V11.2903ZM37.0968 14.5161H35.4839V12.9032H37.0968V14.5161Z" fill="#0F0F10"/>
<path d="M20.9678 32.2581H24.1936V33.871H20.9678V38.7098H29.0323V27.4194H20.9678V32.2581ZM22.5807 29.0323H27.4194V37.0969H22.5807V35.4839H25.8065V30.6452H22.5807V29.0323Z" fill="#0F0F10"/>
<path d="M30.6451 38.7096H38.7097V33.8708H30.6451V38.7096ZM32.258 35.4838H37.0968V37.0967H32.258V35.4838Z" fill="#0F0F10"/>
<path d="M1.6129 1.6129H13.7097V0H0V13.7097H1.6129V1.6129Z" fill="#0F0F10"/>
<path d="M4.83873 13.7097V4.83873H13.7097V3.22583H3.22583V13.7097H4.83873Z" fill="#0F0F10"/>
<path d="M4.83873 36.2903H3.22583V46.7742H13.7097V45.1613H4.83873V36.2903Z" fill="#0F0F10"/>
<path d="M1.6129 36.2903H0V50H13.7097V48.3871H1.6129V36.2903Z" fill="#0F0F10"/>
<path d="M45.1613 13.7097H46.7742V3.22583H36.2903V4.83873H45.1613V13.7097Z" fill="#0F0F10"/>
<path d="M36.2903 0V1.6129H48.3871V13.7097H50V0H36.2903Z" fill="#0F0F10"/>
<path d="M48.3871 48.3871H36.2903V50H50V36.2903H48.3871V48.3871Z" fill="#0F0F10"/>
<path d="M45.1613 36.2903V45.1613H36.2903V46.7742H46.7742V36.2903H45.1613Z" fill="#0F0F10"/>
</g>
<defs>
<clipPath id="clip0_3_242">
<rect width="50" height="50" fill="white"/>
</clipPath>
</defs>
</svg>
