<svg width="30" height="30" viewBox="0 0 30 30" fill="none" xmlns="http://www.w3.org/2000/svg">
<path d="M5 14.2222V14.2222C5 15.587 5 16.2694 5.3191 16.7643C5.47337 17.0036 5.67695 17.2071 5.91622 17.3614C6.41113 17.6805 7.09353 17.6805 8.45834 17.6805H9.32237C10.0181 17.6805 10.366 17.6805 10.6278 17.8693C10.8897 18.058 10.9997 18.388 11.2197 19.048L11.4608 19.7713C11.6808 20.4313 11.7908 20.7613 12.0527 20.9501C12.3146 21.1388 12.6625 21.1388 13.3582 21.1388H17.3918C18.0875 21.1388 18.4354 21.1388 18.6973 20.9501C18.9592 20.7613 19.0692 20.4313 19.2892 19.7713L19.5303 19.048C19.7503 18.388 19.8603 18.058 20.1222 17.8693C20.384 17.6805 20.7319 17.6805 21.4276 17.6805H22.2917C23.6565 17.6805 24.3389 17.6805 24.8338 17.3614C25.0731 17.2071 25.2766 17.0036 25.4309 16.7643C25.75 16.2694 25.75 15.587 25.75 14.2222V14.2222" stroke="url(#paint0_linear_9_11721)" stroke-width="2"/>
<path d="M25.75 23.75V7C25.75 5.89543 24.8546 5 23.75 5H7C5.89543 5 5 5.89543 5 7V23.75C5 24.8546 5.89543 25.75 7 25.75H23.75C24.8546 25.75 25.75 24.8546 25.75 23.75Z" stroke="url(#paint1_linear_9_11721)" stroke-width="2"/>
<path d="M11.3403 12.4933L15.3751 9.61133M15.3751 9.61133L19.4098 12.4933M15.3751 9.61133L15.3751 16.528" stroke="url(#paint2_linear_9_11721)" stroke-width="2"/>
<defs>
<linearGradient id="paint0_linear_9_11721" x1="5" y1="17.6805" x2="25.75" y2="17.6805" gradientUnits="userSpaceOnUse">
<stop stop-color="#EBA01F"/>
<stop offset="1" stop-color="#FAD422"/>
</linearGradient>
<linearGradient id="paint1_linear_9_11721" x1="5" y1="15.375" x2="25.75" y2="15.375" gradientUnits="userSpaceOnUse">
<stop stop-color="#EBA01F"/>
<stop offset="1" stop-color="#FAD422"/>
</linearGradient>
<linearGradient id="paint2_linear_9_11721" x1="15.3751" y1="9.61133" x2="15.3751" y2="16.528" gradientUnits="userSpaceOnUse">
<stop stop-color="#EBA01F"/>
<stop offset="1" stop-color="#FAD422"/>
</linearGradient>
</defs>
</svg>
