<svg width="17" height="20" viewBox="0 0 17 20" fill="none" xmlns="http://www.w3.org/2000/svg">
<path d="M5.16667 2L4.63634 1.46967L5.16667 0.93934L5.697 1.46967L5.16667 2ZM5.91667 14.5C5.91667 14.9142 5.58088 15.25 5.16667 15.25C4.75245 15.25 4.41667 14.9142 4.41667 14.5L5.91667 14.5ZM0.46967 5.63634L4.63634 1.46967L5.697 2.53033L1.53033 6.697L0.46967 5.63634ZM5.697 1.46967L9.86366 5.63634L8.803 6.697L4.63634 2.53033L5.697 1.46967ZM5.91667 2L5.91667 14.5L4.41667 14.5L4.41667 2L5.91667 2Z" fill="#FDFCFD"/>
<path d="M11.8333 18.6665L11.303 19.1968L11.8333 19.7272L12.3637 19.1968L11.8333 18.6665ZM12.5833 6.1665C12.5833 5.75229 12.2476 5.4165 11.8333 5.4165C11.4191 5.4165 11.0833 5.75229 11.0833 6.1665L12.5833 6.1665ZM7.13634 15.0302L11.303 19.1968L12.3637 18.1362L8.197 13.9695L7.13634 15.0302ZM12.3637 19.1968L16.5303 15.0302L15.4697 13.9695L11.303 18.1362L12.3637 19.1968ZM12.5833 18.6665L12.5833 6.1665L11.0833 6.1665L11.0833 18.6665L12.5833 18.6665Z" fill="#FDFCFD"/>
</svg>
