<svg width="50" height="50" viewBox="0 0 50 50" fill="none" xmlns="http://www.w3.org/2000/svg">
<path d="M9.26236 22.2343C8.75232 21.7706 9.02937 20.9323 9.71925 20.8519L19.4944 19.712C19.7756 19.6793 20.0198 19.5057 20.1384 19.2529L24.2614 10.4652C24.5524 9.84501 25.4492 9.84489 25.7402 10.4651L29.8632 19.2527C29.9818 19.5055 30.2244 19.6795 30.5056 19.7123L40.2813 20.8519C40.9712 20.9323 41.2475 21.7709 40.7374 22.2346L33.5112 28.8056C33.3033 28.9946 33.2108 29.2759 33.266 29.5489L35.1838 39.0408C35.3192 39.7107 34.594 40.2297 33.9878 39.8961L25.3984 35.168C25.1513 35.0321 24.8511 35.0327 24.6041 35.1687L16.0138 39.8949C15.4076 40.2285 14.6811 39.7106 14.8165 39.0407L16.7346 29.5495C16.7898 29.2765 16.6974 28.9945 16.4896 28.8055L9.26236 22.2343Z" fill="#FFEA00" stroke="#FFEA00" stroke-width="2" stroke-linecap="round" stroke-linejoin="round"/>
</svg>
