<svg width="30" height="30" viewBox="0 0 30 30" fill="none" xmlns="http://www.w3.org/2000/svg">
<path d="M5.55744 13.3406C5.25142 13.0624 5.41765 12.5594 5.83157 12.5111L11.6967 11.8272C11.8654 11.8076 12.0119 11.7034 12.0831 11.5517L14.5569 6.27912C14.7315 5.90701 15.2696 5.90694 15.4441 6.27905L17.918 11.5516C17.9891 11.7033 18.1347 11.8077 18.3034 11.8274L24.1688 12.5111C24.5827 12.5594 24.7485 13.0625 24.4425 13.3407L20.1067 17.2833C19.982 17.3967 19.9265 17.5655 19.9596 17.7293L21.1103 23.4245C21.1915 23.8264 20.7564 24.1378 20.3927 23.9377L15.239 21.1008C15.0908 21.0192 14.9107 21.0196 14.7625 21.1012L9.60828 23.9369C9.24456 24.1371 8.80866 23.8264 8.88989 23.4244L10.0408 17.7297C10.0739 17.5659 10.0185 17.3967 9.89377 17.2833L5.55744 13.3406Z" fill="#0F0F10" stroke="#0F0F10" stroke-width="1.2" stroke-linecap="round" stroke-linejoin="round"/>
</svg>
