<svg width="30" height="30" viewBox="0 0 30 30" fill="none" xmlns="http://www.w3.org/2000/svg">
<path fill-rule="evenodd" clip-rule="evenodd" d="M18.6911 19.0378C19.2554 19.0393 19.8086 19.1949 20.2911 19.4878H20.2786C21.733 20.3553 22.227 22.2265 21.3902 23.6989C20.5533 25.1712 18.6929 25.7043 17.2033 24.8985C15.7137 24.0928 15.1417 22.2439 15.9161 20.7378L12.2536 17.0003C11.9891 17.1613 11.7028 17.2834 11.4036 17.3628C11.1544 17.4268 10.8983 17.4603 10.6411 17.4628C9.05517 17.4708 7.71471 16.2897 7.52311 14.7154C7.33151 13.1411 8.34954 11.6729 9.89108 11.3003C10.1365 11.2404 10.3884 11.211 10.6411 11.2128C11.2862 11.2133 11.9152 11.4142 12.4411 11.7878L15.9161 8.31278C15.3984 7.34544 15.4305 6.17649 16.0007 5.23909C16.5708 4.30168 17.594 3.73548 18.6911 3.75028C19.2543 3.74744 19.8076 3.89873 20.2911 4.18778C21.2736 4.72815 21.8931 5.75161 21.9164 6.87265C21.9397 7.99368 21.3631 9.04198 20.4039 9.62265C19.4447 10.2033 18.2486 10.2281 17.2661 9.68778L13.5911 13.3628C13.6319 13.4516 13.6653 13.5435 13.6911 13.6378C13.8571 14.3106 13.7911 15.0197 13.5036 15.6503L17.2536 19.4003C17.6976 19.1682 18.1901 19.044 18.6911 19.0378ZM18.6911 5.62528C18.2523 5.62273 17.8442 5.85046 17.6161 6.22528C17.4456 6.51103 17.3961 6.85294 17.4786 7.17528C17.5507 7.49714 17.7549 7.77383 18.0411 7.93778C18.2328 8.05666 18.453 8.12145 18.6786 8.12528C19.1199 8.12521 19.5285 7.89241 19.7536 7.51278C20.1077 6.92232 19.9177 6.15665 19.3286 5.80028C19.1372 5.68214 18.9159 5.6214 18.6911 5.62528ZM10.6411 15.5878C10.0527 15.6049 9.53209 15.2093 9.39108 14.6378C9.31237 14.3138 9.36638 13.9718 9.54108 13.6878C9.71157 13.4075 9.98544 13.2055 10.3036 13.1253H10.6036C11.1919 13.1081 11.7126 13.5038 11.8536 14.0753C11.9325 14.3937 11.8832 14.7304 11.7161 15.0128L11.6411 15.1003C11.4753 15.3375 11.2323 15.5098 10.9536 15.5878H10.6411ZM18.6786 23.3503C19.1174 23.3528 19.5254 23.1251 19.7536 22.7503C20.0668 22.174 19.8812 21.4536 19.3286 21.1003C19.1369 20.9814 18.9166 20.9166 18.6911 20.9128C18.2497 20.9129 17.8412 21.1457 17.6161 21.5253C17.2619 22.1157 17.4519 22.8814 18.0411 23.2378C18.2388 23.3342 18.4597 23.3732 18.6786 23.3503Z" fill="url(#paint0_linear_41_1600)"/>
<defs>
<linearGradient id="paint0_linear_41_1600" x1="7.5" y1="14.512" x2="21.9171" y2="14.512" gradientUnits="userSpaceOnUse">
<stop stop-color="#EBA01F"/>
<stop offset="1" stop-color="#FAD422"/>
</linearGradient>
</defs>
</svg>
