<svg width="70" height="70" viewBox="0 0 70 70" fill="none" xmlns="http://www.w3.org/2000/svg">
<g clip-path="url(#clip0_9_1406)">
<path d="M35.1651 61.3402C39.6816 61.3402 43.3429 57.6789 43.3429 53.1624C43.3429 48.6459 39.6816 44.9846 35.1651 44.9846C30.6486 44.9846 26.9873 48.6459 26.9873 53.1624C26.9873 57.6789 30.6486 61.3402 35.1651 61.3402Z" fill="url(#paint0_linear_9_1406)"/>
<path d="M54.7096 33.4594C54.5883 33.3347 54.4602 33.2235 54.3354 33.1088L53.968 32.7616C53.9073 32.6976 53.8399 32.6504 53.7624 32.5897C43.1879 22.9827 27.0042 23.3636 16.9118 33.4561L15.7286 34.6426L14.0903 36.2809C12.0948 38.2764 12.1049 41.5293 14.1038 43.5283C16.1061 45.534 19.359 45.5373 21.3512 43.5418L24.1761 40.717C30.5942 34.3021 41.0339 34.3021 47.4487 40.7136L49.4881 42.6889C51.4634 44.6643 54.686 44.6609 56.6715 42.6721C57.6322 41.7147 58.1614 40.4372 58.1648 39.0787C58.1681 37.727 57.6457 36.4494 56.685 35.4954L54.7096 33.4594Z" fill="url(#paint1_linear_9_1406)"/>
<path d="M68.6415 23.3502L66.9426 21.6512C66.9358 21.6445 66.9324 21.6344 66.919 21.631L65.5773 20.2827C65.3414 20.0501 65.0852 19.8478 64.8155 19.6725C47.5801 4.54058 21.3647 5.00576 4.67876 21.058C4.59786 21.1321 4.50684 21.1827 4.42594 21.2636L1.35843 24.3345C-0.461856 26.1514 -0.451743 29.1077 1.37865 30.9381C3.20568 32.7651 6.16195 32.7786 7.98224 30.9549L11.0498 27.8908C11.07 27.8638 11.0868 27.8402 11.1071 27.8233C24.6007 14.7881 46.0059 14.7072 59.6075 27.557L62.021 29.974C63.838 31.7909 66.801 31.7841 68.628 29.9571C70.4517 28.1267 70.4584 25.1671 68.6415 23.3502Z" fill="url(#paint2_linear_9_1406)"/>
</g>
<defs>
<linearGradient id="paint0_linear_9_1406" x1="26.9873" y1="53.1624" x2="43.3429" y2="53.1624" gradientUnits="userSpaceOnUse">
<stop stop-color="#EBA01F"/>
<stop offset="1" stop-color="#FAD422"/>
</linearGradient>
<linearGradient id="paint1_linear_9_1406" x1="12.5991" y1="35.3318" x2="58.1648" y2="35.3318" gradientUnits="userSpaceOnUse">
<stop stop-color="#EBA01F"/>
<stop offset="1" stop-color="#FAD422"/>
</linearGradient>
<linearGradient id="paint2_linear_9_1406" x1="-0.000488281" y1="20.4882" x2="70" y2="20.4882" gradientUnits="userSpaceOnUse">
<stop stop-color="#EBA01F"/>
<stop offset="1" stop-color="#FAD422"/>
</linearGradient>
<clipPath id="clip0_9_1406">
<rect width="70" height="70" fill="white"/>
</clipPath>
</defs>
</svg>
